CommonSerif-Regular.ufo
<glyph name="zero" format="2">
  <advance width="465"/>
  <unicode hex="0030"/>
  <outline>
    <contour>
      <point x="39" y="294" type="curve" smooth="yes"/>
      <point x="39" y="123"/>
      <point x="122" y="-10"/>
      <point x="228" y="-10" type="curve" smooth="yes"/>
      <point x="339" y="-10"/>
      <point x="422" y="123"/>
      <point x="422" y="303" type="curve" smooth="yes"/>
      <point x="422" y="477"/>
      <point x="340" y="610"/>
      <point x="232" y="610" type="curve" smooth="yes"/>
      <point x="122" y="610"/>
      <point x="39" y="474"/>
    </contour>
    <contour>
      <point x="126" y="283" type="curve" smooth="yes"/>
      <point x="126" y="468"/>
      <point x="165" y="575"/>
      <point x="232" y="575" type="curve" smooth="yes"/>
      <point x="293" y="575"/>
      <point x="335" y="472"/>
      <point x="335" y="322" type="curve" smooth="yes"/>
      <point x="335" y="134"/>
      <point x="296" y="25"/>
      <point x="229" y="25" type="curve" smooth="yes"/>
      <point x="165" y="25"/>
      <point x="126" y="123"/>
    </contour>
  </outline>
</glyph>
<glyph name="F" format="2">
  <advance width="487"/>
  <unicode hex="0046"/>
  <anchor x="242" y="740" name="top"/>
  <anchor x="242" y="-60" name="b.minus-60"/>
  <outline>
    <contour>
      <point x="19" y="-2" type="curve"/>
      <point x="56" y="-1"/>
      <point x="122" y="0"/>
      <point x="154" y="0" type="curve"/>
      <point x="154" y="645" type="line"/>
      <point x="124" y="645"/>
      <point x="59" y="646"/>
      <point x="19" y="647" type="curve"/>
      <point x="13" y="641"/>
      <point x="13" y="620"/>
      <point x="19" y="614" type="curve"/>
      <point x="89" y="611"/>
      <point x="106" y="604"/>
      <point x="106" y="527" type="curve" smooth="yes"/>
      <point x="106" y="120" type="line" smooth="yes"/>
      <point x="106" y="39"/>
      <point x="89" y="34"/>
      <point x="19" y="31" type="curve"/>
      <point x="13" y="25"/>
      <point x="13" y="4"/>
    </contour>
    <contour>
      <point x="149.5" y="0" type="line"/>
      <point x="194.5" y="0"/>
      <point x="244" y="-1"/>
      <point x="279" y="-2" type="curve"/>
      <point x="285" y="4"/>
      <point x="285" y="25"/>
      <point x="279" y="31" type="curve"/>
      <point x="209" y="34"/>
      <point x="192" y="40"/>
      <point x="192" y="120.41" type="curve" smooth="yes"/>
      <point x="192" y="541" type="line" smooth="yes"/>
      <point x="192" y="595"/>
      <point x="204" y="605"/>
      <point x="248" y="605" type="curve" smooth="yes"/>
      <point x="293" y="605" type="line" smooth="yes"/>
      <point x="399" y="605"/>
      <point x="424" y="565"/>
      <point x="446" y="496" type="curve"/>
      <point x="458" y="496"/>
      <point x="469" y="498"/>
      <point x="477" y="501" type="curve"/>
      <point x="472" y="542"/>
      <point x="457" y="638"/>
      <point x="455" y="646" type="curve"/>
      <point x="455" y="648"/>
      <point x="454" y="649"/>
      <point x="451" y="649" type="curve"/>
      <point x="434" y="646"/>
      <point x="429" y="645"/>
      <point x="404" y="645" type="curve" smooth="yes"/>
      <point x="149.5" y="645" type="line"/>
    </contour>
    <contour>
      <point x="177" y="323" type="line"/>
      <point x="285" y="323" type="line" smooth="yes"/>
      <point x="370" y="323"/>
      <point x="373" y="300"/>
      <point x="376" y="255" type="curve"/>
      <point x="382" y="249"/>
      <point x="403" y="249"/>
      <point x="409" y="255" type="curve"/>
      <point x="408" y="280"/>
      <point x="407" y="309"/>
      <point x="407" y="343" type="curve" smooth="yes"/>
      <point x="407" y="377"/>
      <point x="408" y="403"/>
      <point x="409" y="429" type="curve"/>
      <point x="403" y="435"/>
      <point x="382" y="435"/>
      <point x="376" y="429" type="curve"/>
      <point x="373" y="374"/>
      <point x="370" y="361"/>
      <point x="285" y="361" type="curve" smooth="yes"/>
      <point x="177" y="361" type="line"/>
    </contour>
  </outline>
</glyph>
<glyph name="L" format="2">
  <advance width="529"/>
  <unicode hex="004C"/>
  <anchor x="150" y="740" name="top"/>
  <anchor x="254" y="-60" name="b.minus-60"/>
  <anchor x="352" y="658" name="apostrophe"/>
  <outline>
    <contour>
      <point x="19" y="-2" type="curve"/>
      <point x="56" y="-1"/>
      <point x="122" y="0"/>
      <point x="154" y="0" type="curve"/>
      <point x="154" y="645" type="line"/>
      <point x="124" y="645"/>
      <point x="59" y="646"/>
      <point x="19" y="647" type="curve"/>
      <point x="13" y="641"/>
      <point x="13" y="620"/>
      <point x="19" y="614" type="curve"/>
      <point x="89" y="611"/>
      <point x="106" y="604"/>
      <point x="106" y="527" type="curve" smooth="yes"/>
      <point x="106" y="120" type="line" smooth="yes"/>
      <point x="106" y="39"/>
      <point x="89" y="34"/>
      <point x="19" y="31" type="curve"/>
      <point x="13" y="25"/>
      <point x="13" y="4"/>
    </contour>
    <contour>
      <point x="149.5" y="0" type="line"/>
      <point x="363" y="0" type="line" smooth="yes"/>
      <point x="390" y="0"/>
      <point x="473" y="-2"/>
      <point x="482" y="-2" type="curve"/>
      <point x="492" y="48"/>
      <point x="502" y="113"/>
      <point x="508" y="165" type="curve"/>
      <point x="498" y="170"/>
      <point x="487" y="172"/>
      <point x="475" y="170" type="curve"/>
      <point x="455" y="98"/>
      <point x="418" y="39"/>
      <point x="312" y="39" type="curve" smooth="yes"/>
      <point x="249" y="39" type="line" smooth="yes"/>
      <point x="210" y="39"/>
      <point x="192" y="58"/>
      <point x="192" y="109" type="curve" smooth="yes"/>
      <point x="192" y="523" type="line" smooth="yes"/>
      <point x="192" y="606"/>
      <point x="209" y="611"/>
      <point x="279" y="614" type="curve"/>
      <point x="285" y="620"/>
      <point x="285" y="641"/>
      <point x="279" y="647" type="curve"/>
      <point x="234" y="646"/>
      <point x="187.5" y="645"/>
      <point x="149.5" y="645" type="curve"/>
    </contour>
  </outline>
</glyph>
<glyph name="m" format="2">
  <advance width="794"/>
  <unicode hex="006D"/>
  <anchor x="408" y="500" name="top"/>
  <anchor x="411" y="-60" name="b.minus-60"/>
  <outline>
    <contour>
      <point x="30" y="-2" type="curve"/>
      <point x="60" y="-1"/>
      <point x="100" y="0"/>
      <point x="140" y="0" type="curve" smooth="yes"/>
      <point x="180" y="0"/>
      <point x="211" y="-1"/>
      <point x="241" y="-2" type="curve"/>
      <point x="247" y="4"/>
      <point x="247" y="25"/>
      <point x="241" y="31" type="curve"/>
      <point x="190" y="36"/>
      <point x="180" y="40"/>
      <point x="180" y="122" type="curve"/>
      <point x="100" y="122" type="line"/>
      <point x="100" y="40"/>
      <point x="90" y="36"/>
      <point x="30" y="31" type="curve"/>
      <point x="24" y="25"/>
      <point x="24" y="4"/>
    </contour>
    <contour>
      <point x="309" y="-2" type="curve"/>
      <point x="342" y="-1"/>
      <point x="370" y="0"/>
      <point x="410" y="0" type="curve" smooth="yes"/>
      <point x="450" y="0"/>
      <point x="478" y="-1"/>
      <point x="511" y="-2" type="curve"/>
      <point x="517" y="4"/>
      <point x="517" y="25"/>
      <point x="511" y="31" type="curve"/>
      <point x="460" y="35"/>
      <point x="450" y="40"/>
      <point x="450" y="122" type="curve"/>
      <point x="370" y="122" type="line"/>
      <point x="370" y="40"/>
      <point x="360" y="35"/>
      <point x="309" y="31" type="curve"/>
      <point x="303" y="25"/>
      <point x="303" y="4"/>
    </contour>
    <contour>
      <point x="578" y="-2" type="curve"/>
      <point x="608" y="-1"/>
      <point x="640" y="0"/>
      <point x="680" y="0" type="curve" smooth="yes"/>
      <point x="720" y="0"/>
      <point x="757" y="-1"/>
      <point x="787" y="-2" type="curve"/>
      <point x="792" y="4"/>
      <point x="792" y="25"/>
      <point x="787" y="31" type="curve"/>
      <point x="731" y="36"/>
      <point x="720" y="40"/>
      <point x="720" y="122" type="curve"/>
      <point x="640" y="122" type="line"/>
      <point x="640" y="40"/>
      <point x="630" y="36"/>
      <point x="578" y="31" type="curve"/>
      <point x="573" y="25"/>
      <point x="573" y="4"/>
    </contour>
    <contour>
      <point x="100" y="316" type="curve"/>
      <point x="180" y="336" type="line"/>
      <point x="180" y="369.727"/>
      <point x="174" y="422"/>
      <point x="168" y="434" type="curve" smooth="yes"/>
      <point x="165.51" y="438.981"/>
      <point x="161.827" y="442"/>
      <point x="156" y="442" type="curve"/>
      <point x="118.865" y="427.411"/>
      <point x="88.3775" y="420.223"/>
      <point x="33" y="413" type="curve"/>
      <point x="31.3529" y="408.059"/>
      <point x="32.4545" y="392.636"/>
      <point x="35" y="385" type="curve"/>
      <point x="92.4123" y="379.684"/>
      <point x="100" y="370.746"/>
    </contour>
    <contour>
      <point x="640" y="122" type="line"/>
      <point x="720" y="122" type="line"/>
      <point x="720" y="281" type="line" smooth="yes"/>
      <point x="720" y="370"/>
      <point x="704" y="440"/>
      <point x="616" y="440" type="curve" smooth="yes"/>
      <point x="561" y="440"/>
      <point x="483" y="408"/>
      <point x="431" y="344" type="curve"/>
      <point x="434" y="305" type="line"/>
      <point x="487" y="372"/>
      <point x="537" y="388"/>
      <point x="580" y="388" type="curve" smooth="yes"/>
      <point x="618" y="388"/>
      <point x="640" y="366"/>
      <point x="640" y="299" type="curve" smooth="yes"/>
    </contour>
    <contour>
      <point x="370" y="122" type="line"/>
      <point x="450" y="122" type="line"/>
      <point x="450" y="282" type="line" smooth="yes"/>
      <point x="450" y="358"/>
      <point x="435" y="440"/>
      <point x="340" y="440" type="curve" smooth="yes"/>
      <point x="277" y="440"/>
      <point x="208" y="388"/>
      <point x="167" y="337" type="curve"/>
      <point x="172" y="304" type="line"/>
      <point x="205" y="343"/>
      <point x="252" y="388"/>
      <point x="304" y="388" type="curve" smooth="yes"/>
      <point x="342" y="388"/>
      <point x="370" y="364"/>
      <point x="370" y="297" type="curve" smooth="yes"/>
    </contour>
    <contour>
      <point x="100" y="122" type="line"/>
      <point x="180" y="122" type="line"/>
      <point x="180" y="336" type="line"/>
      <point x="100" y="316" type="line"/>
    </contour>
  </outline>
</glyph>
<glyph name="Thorn" format="2">
  <advance width="535"/>
  <unicode hex="00DE"/>
  <anchor x="259" y="740" name="top"/>
  <anchor x="251" y="-60" name="b.minus-60"/>
  <outline>
    <contour>
      <point x="106" y="122" type="line" smooth="yes"/>
      <point x="106" y="39"/>
      <point x="89" y="34"/>
      <point x="19" y="31" type="curve"/>
      <point x="13" y="25"/>
      <point x="13" y="4"/>
      <point x="19" y="-2" type="curve"/>
      <point x="68" y="-1"/>
      <point x="98" y="0"/>
      <point x="149" y="0" type="curve" smooth="yes"/>
      <point x="199" y="0"/>
      <point x="228" y="-1"/>
      <point x="278" y="-2" type="curve"/>
      <point x="284" y="4"/>
      <point x="284" y="25"/>
      <point x="278" y="31" type="curve"/>
      <point x="208" y="34"/>
      <point x="191" y="39"/>
      <point x="191" y="122" type="curve" smooth="yes"/>
      <point x="191" y="159" type="line"/>
      <point x="206" y="154"/>
      <point x="232" y="150"/>
      <point x="267" y="150" type="curve" smooth="yes"/>
      <point x="445" y="150"/>
      <point x="501" y="268"/>
      <point x="501" y="343" type="curve" smooth="yes"/>
      <point x="501" y="414"/>
      <point x="466" y="523"/>
      <point x="281" y="523" type="curve" smooth="yes"/>
      <point x="262" y="523"/>
      <point x="227" y="521"/>
      <point x="191" y="519" type="curve"/>
      <point x="191" y="523" type="line" smooth="yes"/>
      <point x="191" y="606"/>
      <point x="208" y="611"/>
      <point x="278" y="614" type="curve"/>
      <point x="284" y="620"/>
      <point x="284" y="641"/>
      <point x="278" y="647" type="curve"/>
      <point x="229" y="646"/>
      <point x="199" y="645"/>
      <point x="148" y="645" type="curve" smooth="yes"/>
      <point x="98" y="645"/>
      <point x="69" y="646"/>
      <point x="19" y="647" type="curve"/>
      <point x="13" y="641"/>
      <point x="13" y="620"/>
      <point x="19" y="614" type="curve"/>
      <point x="89" y="611"/>
      <point x="106" y="606"/>
      <point x="106" y="523" type="curve" smooth="yes"/>
    </contour>
    <contour>
      <point x="191" y="188" type="curve"/>
      <point x="191" y="479" type="line"/>
      <point x="212" y="485"/>
      <point x="261" y="490"/>
      <point x="280" y="490" type="curve" smooth="yes"/>
      <point x="339" y="490"/>
      <point x="408" y="463"/>
      <point x="408" y="343" type="curve" smooth="yes"/>
      <point x="408" y="214"/>
      <point x="334" y="183"/>
      <point x="262" y="183" type="curve" smooth="yes"/>
      <point x="224" y="183"/>
      <point x="200" y="185"/>
    </contour>
  </outline>
</glyph>
<glyph name="uni0183" format="2">
  <advance width="491"/>
  <unicode hex="0183"/>
  <outline>
    <contour>
      <point x="74" y="71" type="line" smooth="yes"/>
      <point x="74" y="24"/>
      <point x="73.5636" y="12.6545"/>
      <point x="71" y="-7" type="curve"/>
      <point x="76.5524" y="-10.1559"/>
      <point x="84.2975" y="-12"/>
      <point x="92" y="-12" type="curve"/>
      <point x="107.714" y="1.46939"/>
      <point x="118.885" y="13.2787"/>
      <point x="127" y="25" type="curve"/>
      <point x="152.814" y="2.71499"/>
      <point x="191.322" y="-10"/>
      <point x="237.535" y="-10" type="curve" smooth="yes"/>
      <point x="363.814" y="-10"/>
      <point x="450" y="84.939"/>
      <point x="450" y="229.039" type="curve" smooth="yes"/>
      <point x="450" y="346.275"/>
      <point x="371.624" y="439"/>
      <point x="270.816" y="439" type="curve" smooth="yes"/>
      <point x="226.559" y="439"/>
      <point x="186.677" y="420.649"/>
      <point x="153" y="384" type="curve"/>
      <point x="153" y="613.775" type="line" smooth="yes"/>
      <point x="153" y="638.721"/>
      <point x="168.953" y="654"/>
      <point x="195" y="654" type="curve" smooth="yes"/>
      <point x="273" y="654" type="line" smooth="yes"/>
      <point x="328.417" y="654"/>
      <point x="358.13" y="623.156"/>
      <point x="378" y="545" type="curve"/>
      <point x="388.109" y="542.978"/>
      <point x="399.106" y="544.043"/>
      <point x="409" y="548" type="curve"/>
      <point x="401.781" y="594.727"/>
      <point x="396" y="647.581"/>
      <point x="396" y="672.482" type="curve" smooth="yes"/>
      <point x="396" y="685.747"/>
      <point x="394.359" y="688.7"/>
      <point x="391" y="691" type="curve"/>
      <point x="377" y="689"/>
      <point x="363" y="688"/>
      <point x="349" y="688" type="curve" smooth="yes"/>
      <point x="194" y="688" type="line" smooth="yes"/>
      <point x="130.25" y="688"/>
      <point x="70.8064" y="682.968"/>
      <point x="5" y="672" type="curve"/>
      <point x="3.5022" y="664.511"/>
      <point x="4.6456" y="648.503"/>
      <point x="7" y="644" type="curve"/>
      <point x="62.8648" y="639.345"/>
      <point x="74" y="625.716"/>
      <point x="74" y="562" type="curve" smooth="yes"/>
    </contour>
    <contour>
      <point x="153" y="353" type="line"/>
      <point x="177.707" y="378.658"/>
      <point x="214.473" y="395"/>
      <point x="247.488" y="395" type="curve" smooth="yes"/>
      <point x="316.069" y="395"/>
      <point x="368" y="319.122"/>
      <point x="368" y="223" type="curve" smooth="yes"/>
      <point x="368" y="101.502"/>
      <point x="313.108" y="24"/>
      <point x="225.226" y="24" type="curve" smooth="yes"/>
      <point x="193.015" y="24"/>
      <point x="167.315" y="34.4112"/>
      <point x="153" y="54" type="curve"/>
    </contour>
  </outline>
</glyph>
<glyph name="uni018F" format="2">
  <advance width="647"/>
  <unicode hex="018F"/>
  <anchor x="323" y="740" name="top"/>
  <outline>
    <contour>
      <point x="97" y="523" type="line"/>
      <point x="150" y="575"/>
      <point x="201" y="624"/>
      <point x="294" y="624" type="curve" smooth="yes"/>
      <point x="459.654" y="624"/>
      <point x="521" y="433.18"/>
      <point x="521" y="297" type="curve" smooth="yes"/>
      <point x="521" y="283"/>
      <point x="521" y="271"/>
      <point x="520" y="260" type="curve"/>
      <point x="42" y="260" type="line"/>
      <point x="53" y="118"/>
      <point x="124" y="-12"/>
      <point x="316" y="-12" type="curve" smooth="yes"/>
      <point x="509" y="-12"/>
      <point x="611" y="131"/>
      <point x="611" y="326" type="curve" smooth="yes"/>
      <point x="611" y="485"/>
      <point x="525" y="658"/>
      <point x="310" y="658" type="curve" smooth="yes"/>
      <point x="200" y="658"/>
      <point x="153" y="621"/>
      <point x="74" y="547" type="curve"/>
    </contour>
    <contour>
      <point x="511" y="216" type="line"/>
      <point x="493" y="116"/>
      <point x="429" y="22"/>
      <point x="323" y="22" type="curve" smooth="yes"/>
      <point x="225" y="22"/>
      <point x="153" y="86"/>
      <point x="122" y="216" type="curve"/>
    </contour>
  </outline>
</glyph>
<glyph name="uni0248" format="2">
  <advance width="306"/>
  <unicode hex="0248"/>
  <outline>
    <component base="J"/>
    <contour>
      <point x="192" y="235" type="line"/>
      <point x="192" y="274" type="line"/>
      <point x="19" y="274" type="line" smooth="yes"/>
      <point x="10" y="274"/>
      <point x="0" y="259"/>
      <point x="0" y="249" type="curve" smooth="yes"/>
      <point x="0" y="243"/>
      <point x="3" y="235"/>
      <point x="11" y="235" type="curve" smooth="yes"/>
    </contour>
    <contour>
      <point x="138" y="235" type="line"/>
      <point x="271" y="235" type="line" smooth="yes"/>
      <point x="283" y="235"/>
      <point x="292" y="250"/>
      <point x="292" y="261" type="curve" smooth="yes"/>
      <point x="292" y="266"/>
      <point x="289" y="274"/>
      <point x="280" y="274" type="curve" smooth="yes"/>
      <point x="138" y="274" type="line"/>
    </contour>
  </outline>
</glyph>
<glyph name="uni0260" format="2">
  <advance width="540"/>
  <unicode hex="0260"/>
  <outline>
    <contour>
      <point x="220" y="-205" type="curve" smooth="yes"/>
      <point x="184.492" y="-205"/>
      <point x="144.242" y="-179.231"/>
      <point x="130" y="-146" type="curve" smooth="yes"/>
      <point x="120.733" y="-124.376"/>
      <point x="111.807" y="-111"/>
      <point x="87" y="-111" type="curve" smooth="yes"/>
      <point x="66" y="-111"/>
      <point x="53" y="-126"/>
      <point x="53" y="-147" type="curve" smooth="yes"/>
      <point x="53" y="-199"/>
      <point x="154" y="-238"/>
      <point x="210" y="-238" type="curve" smooth="yes"/>
      <point x="374.863" y="-238"/>
      <point x="420" y="-135.045"/>
      <point x="420" y="12" type="curve" smooth="yes"/>
      <point x="420" y="504.656" type="line" smooth="yes"/>
      <point x="420" y="558.343"/>
      <point x="436.763" y="664"/>
      <point x="489" y="664" type="curve" smooth="yes"/>
      <point x="500.386" y="664"/>
      <point x="515.025" y="645.168"/>
      <point x="524" y="625" type="curve" smooth="yes"/>
      <point x="535.164" y="599.913"/>
      <point x="543" y="584"/>
      <point x="570" y="584" type="curve" smooth="yes"/>
      <point x="596" y="584"/>
      <point x="605" y="605"/>
      <point x="605" y="622" type="curve" smooth="yes"/>
      <point x="605" y="671"/>
      <point x="536" y="698"/>
      <point x="493.666" y="698" type="curve" smooth="yes"/>
      <point x="429" y="698"/>
      <point x="343" y="635"/>
      <point x="343" y="477" type="curve" smooth="yes"/>
      <point x="343" y="417" type="line"/>
      <point x="315" y="433"/>
      <point x="281" y="439"/>
      <point x="244" y="439" type="curve" smooth="yes"/>
      <point x="122" y="439"/>
      <point x="36" y="339"/>
      <point x="36" y="207" type="curve" smooth="yes"/>
      <point x="36" y="89.8295"/>
      <point x="114.6" y="-10"/>
      <point x="239" y="-10" type="curve" smooth="yes"/>
      <point x="296" y="-10"/>
      <point x="326" y="10"/>
      <point x="341" y="23" type="curve"/>
      <point x="341" y="-1" type="line" smooth="yes"/>
      <point x="341" y="-141"/>
      <point x="294" y="-205"/>
    </contour>
    <contour>
      <point x="263" y="34" type="curve" smooth="yes"/>
      <point x="157.968" y="34"/>
      <point x="122" y="138.837"/>
      <point x="122" y="227" type="curve" smooth="yes"/>
      <point x="122" y="331"/>
      <point x="160" y="405"/>
      <point x="240" y="405" type="curve" smooth="yes"/>
      <point x="286.59" y="405"/>
      <point x="318.625" y="374.648"/>
      <point x="341" y="336" type="curve"/>
      <point x="341" y="56" type="line"/>
      <point x="315" y="36"/>
      <point x="282" y="34"/>
    </contour>
  </outline>
</glyph>
<glyph name="uni0265" format="2">
  <advance width="544"/>
  <unicode hex="0265"/>
  <outline>
    <contour>
      <point x="93" y="158" type="line" smooth="yes"/>
      <point x="93" y="77.5908"/>
      <point x="98.6213" y="-10"/>
      <point x="203" y="-10" type="curve" smooth="yes"/>
      <point x="271.551" y="-10"/>
      <point x="351.81" y="37.397"/>
      <point x="391.568" y="94.3423" type="curve"/>
      <point x="390.363" y="128.641" type="line"/>
      <point x="358.933" y="85.2436"/>
      <point x="294.238" y="42"/>
      <point x="237" y="42" type="curve" smooth="yes"/>
      <point x="178.765" y="42"/>
      <point x="173" y="112.485"/>
      <point x="173" y="155" type="curve" smooth="yes"/>
      <point x="173" y="307" type="line"/>
      <point x="93" y="307" type="line"/>
    </contour>
    <contour>
      <point x="379.5" y="-121" type="line" smooth="yes"/>
      <point x="379.5" y="-186"/>
      <point x="375" y="-226"/>
      <point x="375" y="-226" type="curve"/>
      <point x="388" y="-236" type="line"/>
      <point x="413" y="-226"/>
      <point x="490" y="-212"/>
      <point x="530" y="-209" type="curve"/>
      <point x="524" y="-179" type="line"/>
      <point x="521" y="-179"/>
      <point x="518" y="-179"/>
      <point x="515" y="-179" type="curve"/>
      <point x="515" y="-179"/>
      <point x="515" y="-179"/>
      <point x="515" y="-179" type="curve"/>
      <point x="471" y="-176"/>
      <point x="460" y="-176"/>
      <point x="460" y="-97" type="curve" smooth="yes"/>
      <point x="460" y="307" type="line"/>
      <point x="379.5" y="307" type="line"/>
    </contour>
    <contour>
      <point x="93" y="307" type="curve"/>
      <point x="173" y="307" type="line"/>
      <point x="173" y="389"/>
      <point x="183" y="394"/>
      <point x="235" y="398" type="curve"/>
      <point x="240" y="404"/>
      <point x="240" y="425"/>
      <point x="235" y="431" type="curve"/>
      <point x="206.021" y="429.683"/>
      <point x="177.009" y="429"/>
      <point x="148" y="429" type="curve" smooth="yes"/>
      <point x="132" y="429" type="line" smooth="yes"/>
      <point x="92" y="429"/>
      <point x="57" y="430"/>
      <point x="29" y="431" type="curve"/>
      <point x="24" y="425"/>
      <point x="24" y="404"/>
      <point x="29" y="398" type="curve"/>
      <point x="84" y="394"/>
      <point x="93" y="389"/>
    </contour>
    <contour>
      <point x="380" y="307" type="curve"/>
      <point x="460" y="307" type="line"/>
      <point x="460" y="389"/>
      <point x="468" y="394"/>
      <point x="522" y="398" type="curve"/>
      <point x="527" y="404"/>
      <point x="527" y="425"/>
      <point x="522" y="431" type="curve"/>
      <point x="497" y="430"/>
      <point x="459" y="429"/>
      <point x="419" y="429" type="curve" smooth="yes"/>
      <point x="379" y="429"/>
      <point x="346" y="430"/>
      <point x="321" y="431" type="curve"/>
      <point x="316" y="425"/>
      <point x="316" y="404"/>
      <point x="321" y="398" type="curve"/>
      <point x="371" y="394"/>
      <point x="380" y="389"/>
    </contour>
  </outline>
</glyph>
<glyph name="uni027A" format="2">
  <advance width="377"/>
  <unicode hex="027A"/>
  <outline>
    <contour>
      <point x="204" y="168" type="line" smooth="yes"/>
      <point x="204" y="139.199"/>
      <point x="159.719" y="52"/>
      <point x="134" y="52" type="curve" smooth="yes"/>
      <point x="125" y="52"/>
      <point x="116" y="54"/>
      <point x="108" y="65" type="curve" smooth="yes"/>
      <point x="101" y="75"/>
      <point x="89" y="88"/>
      <point x="72" y="88" type="curve" smooth="yes"/>
      <point x="48" y="88"/>
      <point x="25" y="63"/>
      <point x="25" y="38" type="curve" smooth="yes"/>
      <point x="25" y="19"/>
      <point x="43" y="-10"/>
      <point x="85" y="-10" type="curve" smooth="yes"/>
      <point x="132" y="-10"/>
      <point x="173" y="34"/>
      <point x="196" y="73" type="curve"/>
      <point x="202" y="84"/>
      <point x="207" y="76"/>
      <point x="207" y="71" type="curve"/>
      <point x="209" y="31"/>
      <point x="210" y="5"/>
      <point x="215" y="-5" type="curve"/>
      <point x="217" y="-10"/>
      <point x="219" y="-13"/>
      <point x="227" y="-13" type="curve"/>
      <point x="255" y="-2"/>
      <point x="282" y="7"/>
      <point x="351" y="16" type="curve"/>
      <point x="353" y="22"/>
      <point x="351" y="38"/>
      <point x="349" y="44" type="curve"/>
      <point x="295" y="49"/>
      <point x="284" y="54"/>
      <point x="284" y="112" type="curve" smooth="yes"/>
      <point x="284" y="523" type="line" smooth="yes"/>
      <point x="284" y="606"/>
      <point x="296" y="610"/>
      <point x="358" y="614" type="curve"/>
      <point x="364" y="620"/>
      <point x="364" y="641"/>
      <point x="358" y="647" type="curve"/>
      <point x="323" y="646"/>
      <point x="283" y="645"/>
      <point x="243" y="645" type="curve" smooth="yes"/>
      <point x="203" y="645"/>
      <point x="157" y="646"/>
      <point x="122" y="647" type="curve"/>
      <point x="116" y="641"/>
      <point x="116" y="620"/>
      <point x="122" y="614" type="curve"/>
      <point x="192" y="609"/>
      <point x="204" y="606"/>
      <point x="204" y="523" type="curve" smooth="yes"/>
    </contour>
  </outline>
</glyph>
<glyph name="uni0305" format="2">
  <unicode hex="0305"/>
  <anchor x="-209" y="537" name="_top"/>
  <outline>
    <contour>
      <point x="-39" y="537" type="line" smooth="yes"/>
      <point x="-26" y="537"/>
      <point x="-16" y="555"/>
      <point x="-16" y="567" type="curve" smooth="yes"/>
      <point x="-16" y="573"/>
      <point x="-20" y="581"/>
      <point x="-29" y="581" type="curve" smooth="yes"/>
      <point x="-370" y="581" type="line" smooth="yes"/>
      <point x="-381" y="581"/>
      <point x="-392" y="564"/>
      <point x="-392" y="552" type="curve" smooth="yes"/>
      <point x="-392" y="545"/>
      <point x="-388" y="537"/>
      <point x="-379" y="537" type="curve" smooth="yes"/>
    </contour>
  </outline>
</glyph>
<glyph name="uni030D" format="2">
  <unicode hex="030D"/>
  <anchor x="-155" y="500" name="_top"/>
  <outline>
    <contour>
      <point x="-127" y="500" type="line"/>
      <point x="-127" y="680" type="line"/>
      <point x="-181" y="680" type="line"/>
      <point x="-181" y="500" type="line"/>
    </contour>
  </outline>
</glyph>
<glyph name="uni031E" format="2">
  <unicode hex="031E"/>
  <anchor x="-250" y="-60" name="_b.minus-60"/>
  <outline>
    <contour>
      <point x="-165" y="-60" type="curve"/>
      <point x="-334" y="-60" type="line"/>
      <point x="-337" y="-65"/>
      <point x="-340" y="-71"/>
      <point x="-340" y="-81" type="curve" smooth="yes"/>
      <point x="-340" y="-85"/>
      <point x="-339" y="-94"/>
      <point x="-334" y="-104" type="curve"/>
      <point x="-271" y="-104" type="line"/>
      <point x="-271" y="-213.5" type="line"/>
      <point x="-265.757" y="-217.5"/>
      <point x="-257.856" y="-222"/>
      <point x="-249.856" y="-222" type="curve" smooth="yes"/>
      <point x="-242.856" y="-222"/>
      <point x="-234" y="-217.5"/>
      <point x="-228" y="-213.5" type="curve"/>
      <point x="-228" y="-104" type="line"/>
      <point x="-165" y="-104" type="line"/>
      <point x="-162" y="-97"/>
      <point x="-158" y="-91"/>
      <point x="-158" y="-81" type="curve" smooth="yes"/>
      <point x="-158" y="-77"/>
      <point x="-159" y="-69"/>
    </contour>
  </outline>
</glyph>
<glyph name="uni0331" format="2">
  <unicode hex="0331"/>
  <anchor x="-243" y="-60" name="_b.minus-60"/>
  <outline>
    <contour>
      <point x="-124" y="-124" type="line" smooth="yes"/>
      <point x="-111" y="-124"/>
      <point x="-100" y="-106"/>
      <point x="-100" y="-94" type="curve" smooth="yes"/>
      <point x="-100" y="-88"/>
      <point x="-104" y="-80"/>
      <point x="-114" y="-80" type="curve" smooth="yes"/>
      <point x="-358" y="-80" type="line" smooth="yes"/>
      <point x="-370" y="-80"/>
      <point x="-380" y="-97"/>
      <point x="-380" y="-109" type="curve" smooth="yes"/>
      <point x="-380" y="-116"/>
      <point x="-377" y="-124"/>
      <point x="-368" y="-124" type="curve" smooth="yes"/>
    </contour>
  </outline>
</glyph>
<glyph name="uni0411" format="2">
  <advance width="587"/>
  <unicode hex="0411"/>
  <anchor x="271" y="740" name="top"/>
  <outline>
    <contour>
      <point x="19" y="-2" type="curve"/>
      <point x="68" y="-1"/>
      <point x="98" y="0"/>
      <point x="149" y="0" type="curve" smooth="yes"/>
      <point x="182" y="0"/>
      <point x="213" y="-2"/>
      <point x="258" y="-2" type="curve" smooth="yes"/>
      <point x="384" y="-2"/>
      <point x="541" y="28"/>
      <point x="541" y="188" type="curve" smooth="yes"/>
      <point x="541" y="264"/>
      <point x="504" y="373"/>
      <point x="300" y="373" type="curve" smooth="yes"/>
      <point x="191" y="373" type="line"/>
      <point x="191" y="574" type="line" smooth="yes"/>
      <point x="191" y="598"/>
      <point x="203" y="605"/>
      <point x="227" y="605" type="curve" smooth="yes"/>
      <point x="352" y="605" type="line" smooth="yes"/>
      <point x="425" y="605"/>
      <point x="447" y="553"/>
      <point x="468" y="469" type="curve"/>
      <point x="482" y="468"/>
      <point x="495" y="469"/>
      <point x="503" y="474" type="curve"/>
      <point x="501" y="529"/>
      <point x="496" y="585"/>
      <point x="484" y="645" type="curve"/>
      <point x="482" y="647" type="line"/>
      <point x="474" y="647"/>
      <point x="401" y="645"/>
      <point x="381" y="645" type="curve" smooth="yes"/>
      <point x="148" y="645" type="line" smooth="yes"/>
      <point x="98" y="645"/>
      <point x="69" y="646"/>
      <point x="19" y="647" type="curve"/>
      <point x="13" y="641"/>
      <point x="13" y="620"/>
      <point x="19" y="614" type="curve"/>
      <point x="89" y="611"/>
      <point x="106" y="606"/>
      <point x="106" y="523" type="curve" smooth="yes"/>
      <point x="106" y="122" type="line" smooth="yes"/>
      <point x="106" y="39"/>
      <point x="89" y="34"/>
      <point x="19" y="31" type="curve"/>
      <point x="13" y="25"/>
      <point x="13" y="4"/>
    </contour>
    <contour>
      <point x="191" y="81" type="curve" smooth="yes"/>
      <point x="191" y="333" type="line"/>
      <point x="288" y="333" type="line" smooth="yes"/>
      <point x="423" y="333"/>
      <point x="451" y="235"/>
      <point x="451" y="178" type="curve" smooth="yes"/>
      <point x="451" y="116"/>
      <point x="420" y="31"/>
      <point x="263" y="31" type="curve" smooth="yes"/>
      <point x="204" y="31"/>
      <point x="191" y="45"/>
    </contour>
  </outline>
</glyph>
<glyph name="uni041A" format="2">
  <advance width="606"/>
  <unicode hex="041A"/>
  <anchor x="323" y="740" name="top"/>
  <outline>
    <contour>
      <point x="19" y="-2" type="curve"/>
      <point x="64" y="-1"/>
      <point x="113" y="0"/>
      <point x="149" y="0" type="curve" smooth="yes"/>
      <point x="185" y="0"/>
      <point x="233" y="-1"/>
      <point x="278" y="-2" type="curve"/>
      <point x="284" y="4"/>
      <point x="284" y="25"/>
      <point x="278" y="31" type="curve"/>
      <point x="208" y="34"/>
      <point x="191" y="39"/>
      <point x="191" y="122" type="curve" smooth="yes"/>
      <point x="191" y="523" type="line" smooth="yes"/>
      <point x="191" y="606"/>
      <point x="208" y="611"/>
      <point x="278" y="614" type="curve"/>
      <point x="284" y="620"/>
      <point x="284" y="641"/>
      <point x="278" y="647" type="curve"/>
      <point x="234" y="646"/>
      <point x="187" y="645"/>
      <point x="148" y="645" type="curve" smooth="yes"/>
      <point x="115" y="645"/>
      <point x="66" y="646"/>
      <point x="19" y="647" type="curve"/>
      <point x="13" y="641"/>
      <point x="13" y="620"/>
      <point x="19" y="614" type="curve"/>
      <point x="89" y="611"/>
      <point x="106" y="606"/>
      <point x="106" y="523" type="curve" smooth="yes"/>
      <point x="106" y="122" type="line" smooth="yes"/>
      <point x="106" y="39"/>
      <point x="89" y="34"/>
      <point x="19" y="31" type="curve"/>
      <point x="13" y="25"/>
      <point x="13" y="4"/>
    </contour>
    <contour>
      <point x="181" y="324" type="line"/>
      <point x="299" y="324"/>
      <point x="320" y="293"/>
      <point x="362" y="191" type="curve" smooth="yes"/>
      <point x="406.969" y="81.7901"/>
      <point x="441.994" y="-1"/>
      <point x="520" y="-1" type="curve" smooth="yes"/>
      <point x="529" y="-1"/>
      <point x="589" y="-2"/>
      <point x="599" y="-2" type="curve"/>
      <point x="605" y="8"/>
      <point x="605" y="21"/>
      <point x="599" y="31" type="curve"/>
      <point x="533" y="34"/>
      <point x="503.704" y="83.5394"/>
      <point x="439" y="234" type="curve" smooth="yes"/>
      <point x="409.057" y="303.629"/>
      <point x="374" y="347"/>
      <point x="305" y="347" type="curve"/>
      <point x="305" y="352" type="line"/>
      <point x="345.503" y="361.901"/>
      <point x="369.135" y="413.873"/>
      <point x="390.054" y="469.434" type="curve" smooth="yes"/>
      <point x="402.904" y="503.563" type="line" smooth="yes"/>
      <point x="410.903" y="524.809"/>
      <point x="436.221" y="590"/>
      <point x="458" y="590" type="curve" smooth="yes"/>
      <point x="468" y="590"/>
      <point x="474" y="585"/>
      <point x="485" y="574" type="curve" smooth="yes"/>
      <point x="495" y="564"/>
      <point x="509" y="559"/>
      <point x="522" y="559" type="curve" smooth="yes"/>
      <point x="543" y="559"/>
      <point x="566" y="570"/>
      <point x="566" y="599" type="curve" smooth="yes"/>
      <point x="566" y="622"/>
      <point x="548" y="651"/>
      <point x="495" y="651" type="curve" smooth="yes"/>
      <point x="425" y="651"/>
      <point x="398.346" y="591.657"/>
      <point x="376" y="533" type="curve" smooth="yes"/>
      <point x="356.221" y="481.081" type="line" smooth="yes"/>
      <point x="325.069" y="399.311"/>
      <point x="313.451" y="366.056"/>
      <point x="196.51" y="366.056" type="curve" smooth="yes"/>
      <point x="181" y="366.056" type="line"/>
    </contour>
  </outline>
</glyph>
<glyph name="uni042E" format="2">
  <advance width="902"/>
  <unicode hex="042E"/>
  <anchor x="395" y="740" name="top"/>
  <outline>
    <component base="I"/>
    <contour>
      <point x="573" y="658" type="curve" smooth="yes"/>
      <point x="387.628" y="658"/>
      <point x="284.702" y="479.788"/>
      <point x="284.702" y="311.837" type="curve" smooth="yes"/>
      <point x="284.702" y="139.253"/>
      <point x="391.182" y="-10"/>
      <point x="574" y="-10" type="curve" smooth="yes"/>
      <point x="752" y="-10"/>
      <point x="866" y="129"/>
      <point x="866" y="329" type="curve" smooth="yes"/>
      <point x="866" y="527"/>
      <point x="741" y="658"/>
    </contour>
    <contour>
      <point x="378" y="327" type="curve" smooth="yes"/>
      <point x="378" y="537"/>
      <point x="478" y="619"/>
      <point x="562" y="619" type="curve" smooth="yes"/>
      <point x="687" y="619"/>
      <point x="773" y="518"/>
      <point x="773" y="310" type="curve" smooth="yes"/>
      <point x="773" y="131"/>
      <point x="695" y="28"/>
      <point x="592" y="28" type="curve" smooth="yes"/>
      <point x="484" y="28"/>
      <point x="378" y="135"/>
    </contour>
    <contour>
      <point x="176" y="305" type="line"/>
      <point x="309.5" y="305" type="line"/>
      <point x="309.5" y="344" type="line"/>
      <point x="176" y="344" type="line"/>
    </contour>
  </outline>
</glyph>
<glyph name="uni042F" format="2">
  <advance width="584"/>
  <unicode hex="042F"/>
  <anchor x="327" y="740" name="top"/>
  <outline>
    <contour>
      <point x="6" y="-2" type="curve"/>
      <point x="26" y="-8"/>
      <point x="51" y="-11"/>
      <point x="73" y="-11" type="curve" smooth="yes"/>
      <point x="130" y="-11"/>
      <point x="167" y="45"/>
      <point x="225" y="192" type="curve" smooth="yes"/>
      <point x="266" y="295"/>
      <point x="286" y="323"/>
      <point x="393" y="323" type="curve"/>
      <point x="393" y="122" type="line" smooth="yes"/>
      <point x="393" y="39"/>
      <point x="369" y="35"/>
      <point x="291" y="31" type="curve"/>
      <point x="285" y="25"/>
      <point x="285" y="4"/>
      <point x="291" y="-2" type="curve"/>
      <point x="341" y="-1"/>
      <point x="380" y="0"/>
      <point x="436" y="0" type="curve"/>
      <point x="436" y="645" type="line"/>
      <point x="402" y="645"/>
      <point x="343" y="646"/>
      <point x="308" y="646" type="curve" smooth="yes"/>
      <point x="122" y="646"/>
      <point x="77" y="560"/>
      <point x="77" y="491" type="curve" smooth="yes"/>
      <point x="77" y="389"/>
      <point x="166" y="339"/>
      <point x="234" y="329" type="curve"/>
      <point x="234" y="326" type="line"/>
      <point x="207" y="310"/>
      <point x="173" y="285"/>
      <point x="149" y="220" type="curve" smooth="yes"/>
      <point x="90" y="60"/>
      <point x="64" y="27"/>
      <point x="6" y="27" type="curve"/>
      <point x="3" y="17"/>
      <point x="3" y="7"/>
    </contour>
    <contour>
      <point x="169" y="502" type="curve" smooth="yes"/>
      <point x="169" y="566"/>
      <point x="225" y="611"/>
      <point x="301" y="611" type="curve" smooth="yes"/>
      <point x="388" y="611"/>
      <point x="392" y="608"/>
      <point x="392" y="575" type="curve" smooth="yes"/>
      <point x="392" y="362" type="line"/>
      <point x="314" y="362" type="line" smooth="yes"/>
      <point x="231" y="362"/>
      <point x="169" y="396"/>
    </contour>
    <contour>
      <point x="436" y="0" type="line"/>
      <point x="487" y="0"/>
      <point x="516" y="-1"/>
      <point x="565" y="-2" type="curve"/>
      <point x="571" y="4"/>
      <point x="571" y="25"/>
      <point x="565" y="31" type="curve"/>
      <point x="495" y="34"/>
      <point x="478" y="39"/>
      <point x="478" y="122" type="curve" smooth="yes"/>
      <point x="478" y="523" type="line" smooth="yes"/>
      <point x="478" y="606"/>
      <point x="495" y="611"/>
      <point x="565" y="614" type="curve"/>
      <point x="571" y="620"/>
      <point x="571" y="641"/>
      <point x="565" y="647" type="curve"/>
      <point x="515" y="646"/>
      <point x="486" y="645"/>
      <point x="436" y="645" type="curve"/>
    </contour>
  </outline>
</glyph>
<glyph name="uni0434" format="2">
  <advance width="538"/>
  <unicode hex="0434"/>
  <anchor x="262" y="500" name="top"/>
  <outline>
    <contour>
      <point x="26" y="-128" type="line"/>
      <point x="33" y="-131"/>
      <point x="41" y="-132"/>
      <point x="53" y="-129" type="curve"/>
      <point x="62" y="-92"/>
      <point x="89" y="0"/>
      <point x="179" y="0" type="curve" smooth="yes"/>
      <point x="352" y="0" type="line" smooth="yes"/>
      <point x="441" y="0"/>
      <point x="470" y="-90"/>
      <point x="479" y="-130" type="curve"/>
      <point x="488" y="-132"/>
      <point x="497" y="-132"/>
      <point x="507" y="-128" type="curve"/>
      <point x="501" y="6" type="line"/>
      <point x="501" y="20"/>
      <point x="493" y="28"/>
      <point x="474" y="31" type="curve" smooth="yes"/>
      <point x="456" y="34"/>
      <point x="431" y="41"/>
      <point x="431" y="78" type="curve" smooth="yes"/>
      <point x="431" y="307" type="line" smooth="yes"/>
      <point x="431" y="389"/>
      <point x="444" y="394"/>
      <point x="499" y="398" type="curve"/>
      <point x="505" y="404"/>
      <point x="505" y="425"/>
      <point x="499" y="431" type="curve"/>
      <point x="469" y="430"/>
      <point x="431" y="429"/>
      <point x="391" y="429" type="curve" smooth="yes"/>
      <point x="189" y="429" type="line" smooth="yes"/>
      <point x="156" y="429"/>
      <point x="117" y="430"/>
      <point x="87" y="431" type="curve"/>
      <point x="81" y="425"/>
      <point x="81" y="404"/>
      <point x="87" y="398" type="curve"/>
      <point x="148" y="393"/>
      <point x="165.795" y="389.01"/>
      <point x="162" y="306" type="curve" smooth="yes"/>
      <point x="157.795" y="214.009"/>
      <point x="142" y="140"/>
      <point x="125" y="70" type="curve" smooth="yes"/>
      <point x="119" y="43"/>
      <point x="90" y="34"/>
      <point x="62" y="31" type="curve" smooth="yes"/>
      <point x="47" y="29"/>
      <point x="33" y="23"/>
      <point x="32" y="5" type="curve" smooth="yes"/>
    </contour>
    <contour>
      <point x="161" y="51" type="curve" smooth="yes"/>
      <point x="161" y="68"/>
      <point x="187.984" y="134.001"/>
      <point x="203" y="363" type="curve" smooth="yes"/>
      <point x="203.984" y="378.001"/>
      <point x="211" y="391"/>
      <point x="238" y="391" type="curve" smooth="yes"/>
      <point x="307" y="391" type="line" smooth="yes"/>
      <point x="347" y="391"/>
      <point x="352" y="363"/>
      <point x="352" y="329" type="curve" smooth="yes"/>
      <point x="352" y="88" type="line" smooth="yes"/>
      <point x="352" y="55"/>
      <point x="350" y="39"/>
      <point x="310" y="39" type="curve" smooth="yes"/>
      <point x="181" y="39" type="line" smooth="yes"/>
      <point x="170" y="39"/>
      <point x="161" y="40"/>
    </contour>
  </outline>
</glyph>
<glyph name="uni0446" format="2">
  <advance width="572"/>
  <unicode hex="0446"/>
  <anchor x="290" y="500" name="top"/>
  <outline>
    <contour>
      <point x="30" y="-2" type="curve"/>
      <point x="60" y="-1"/>
      <point x="98" y="0"/>
      <point x="138" y="0" type="curve" smooth="yes"/>
      <point x="390" y="0" type="line" smooth="yes"/>
      <point x="474" y="0"/>
      <point x="503" y="-80"/>
      <point x="516" y="-129" type="curve"/>
      <point x="525" y="-131"/>
      <point x="534" y="-131"/>
      <point x="542" y="-128" type="curve"/>
      <point x="536" y="5" type="line" smooth="yes"/>
      <point x="535" y="23"/>
      <point x="520" y="28"/>
      <point x="506" y="31" type="curve" smooth="yes"/>
      <point x="483" y="36"/>
      <point x="467" y="42"/>
      <point x="467" y="122" type="curve" smooth="yes"/>
      <point x="467" y="307" type="line" smooth="yes"/>
      <point x="467" y="389"/>
      <point x="480" y="394"/>
      <point x="535" y="398" type="curve"/>
      <point x="541" y="404"/>
      <point x="541" y="425"/>
      <point x="535" y="431" type="curve"/>
      <point x="505" y="430"/>
      <point x="467" y="429"/>
      <point x="427" y="429" type="curve" smooth="yes"/>
      <point x="387" y="429"/>
      <point x="357" y="430"/>
      <point x="327" y="431" type="curve"/>
      <point x="321" y="425"/>
      <point x="321" y="404"/>
      <point x="327" y="398" type="curve"/>
      <point x="378" y="393"/>
      <point x="388" y="389"/>
      <point x="388" y="307" type="curve" smooth="yes"/>
      <point x="388" y="90" type="line" smooth="yes"/>
      <point x="388" y="59"/>
      <point x="385" y="39"/>
      <point x="346" y="39" type="curve" smooth="yes"/>
      <point x="220" y="39" type="line" smooth="yes"/>
      <point x="183" y="39"/>
      <point x="177" y="50"/>
      <point x="177" y="90" type="curve" smooth="yes"/>
      <point x="177" y="307" type="line" smooth="yes"/>
      <point x="177" y="389"/>
      <point x="187" y="394"/>
      <point x="239" y="398" type="curve"/>
      <point x="244" y="404"/>
      <point x="244" y="425"/>
      <point x="239" y="431" type="curve"/>
      <point x="214" y="430"/>
      <point x="177" y="429"/>
      <point x="137" y="429" type="curve" smooth="yes"/>
      <point x="97" y="429"/>
      <point x="62" y="430"/>
      <point x="34" y="431" type="curve"/>
      <point x="29" y="425"/>
      <point x="29" y="404"/>
      <point x="34" y="398" type="curve"/>
      <point x="89" y="394"/>
      <point x="98" y="389"/>
      <point x="98" y="307" type="curve" smooth="yes"/>
      <point x="98" y="122" type="line" smooth="yes"/>
      <point x="98" y="40"/>
      <point x="85" y="35"/>
      <point x="30" y="31" type="curve"/>
      <point x="24" y="25"/>
      <point x="24" y="4"/>
    </contour>
  </outline>
</glyph>
<glyph name="uni0474" format="2">
  <advance width="673"/>
  <unicode hex="0474"/>
  <outline>
    <contour>
      <point x="415" y="402" type="curve" smooth="yes"/>
      <point x="320" y="128" type="line"/>
      <point x="166" y="572" type="line" smooth="yes"/>
      <point x="163.298" y="579.791"/>
      <point x="162" y="586"/>
      <point x="162" y="592" type="curve" smooth="yes"/>
      <point x="162" y="616.134"/>
      <point x="191.912" y="618"/>
      <point x="210" y="618" type="curve" smooth="yes"/>
      <point x="237" y="618" type="line" smooth="yes"/>
      <point x="242" y="618"/>
      <point x="245" y="621"/>
      <point x="245" y="626" type="curve" smooth="yes"/>
      <point x="245" y="645" type="line"/>
      <point x="243" y="646" type="line"/>
      <point x="236.2" y="645.9"/>
      <point x="175" y="645"/>
      <point x="134" y="645" type="curve" smooth="yes"/>
      <point x="119" y="645" type="line" smooth="yes"/>
      <point x="80" y="645"/>
      <point x="9.8" y="645.9"/>
      <point x="2" y="646" type="curve"/>
      <point x="0" y="645" type="line"/>
      <point x="0" y="626" type="line" smooth="yes"/>
      <point x="0" y="619.042"/>
      <point x="5.53317" y="618"/>
      <point x="11" y="618" type="curve" smooth="yes"/>
      <point x="14" y="618" type="line" smooth="yes"/>
      <point x="48.2427" y="618"/>
      <point x="68.9217" y="606.395"/>
      <point x="81" y="572" type="curve" smooth="yes"/>
      <point x="278" y="11" type="line" smooth="yes"/>
      <point x="283" y="-4"/>
      <point x="292" y="-12"/>
      <point x="303" y="-12" type="curve" smooth="yes"/>
      <point x="313" y="-12"/>
      <point x="324" y="-4"/>
      <point x="330" y="11" type="curve"/>
      <point x="503" y="515" type="line" smooth="yes"/>
      <point x="538.15" y="617.403"/>
      <point x="556" y="622"/>
      <point x="574" y="622" type="curve" smooth="yes"/>
      <point x="597" y="622"/>
      <point x="602" y="611"/>
      <point x="602" y="602" type="curve" smooth="yes"/>
      <point x="602" y="586.237"/>
      <point x="583" y="576.519"/>
      <point x="583" y="560" type="curve" smooth="yes"/>
      <point x="583" y="534.505"/>
      <point x="599.029" y="522.434"/>
      <point x="617.247" y="522.426" type="curve" smooth="yes"/>
      <point x="641.228" y="522.416"/>
      <point x="669" y="543.307"/>
      <point x="669" y="582" type="curve" smooth="yes"/>
      <point x="669" y="623.146"/>
      <point x="626.617" y="658"/>
      <point x="587" y="658" type="curve" smooth="yes"/>
      <point x="506" y="658"/>
      <point x="479.853" y="589.051"/>
    </contour>
  </outline>
</glyph>
<glyph name="uni048D" format="2">
  <advance width="484"/>
  <unicode hex="048D"/>
  <outline>
    <contour>
      <point x="181.336" y="431" type="line"/>
      <point x="181.336" y="392" type="line"/>
      <point x="259.824" y="392" type="line"/>
      <point x="259.824" y="431" type="line"/>
    </contour>
    <contour>
      <point x="57" y="-2" type="curve"/>
      <point x="90" y="-1"/>
      <point x="134" y="0"/>
      <point x="174" y="0" type="curve"/>
      <point x="174" y="122" type="line"/>
      <point x="129" y="122" type="line"/>
      <point x="129" y="40"/>
      <point x="118" y="35"/>
      <point x="57" y="31" type="curve"/>
      <point x="51" y="25"/>
      <point x="51" y="4"/>
    </contour>
    <contour>
      <point x="129" y="110" type="line"/>
      <point x="209" y="110" type="line"/>
      <point x="209" y="588" type="line"/>
      <point x="129" y="588" type="line"/>
    </contour>
    <contour>
      <point x="128.962" y="576" type="curve"/>
      <point x="208.962" y="576" type="line"/>
      <point x="208.962" y="627.125"/>
      <point x="210.026" y="657.732"/>
      <point x="212.962" y="691" type="curve"/>
      <point x="212.962" y="695.154"/>
      <point x="207.676" y="698"/>
      <point x="199.962" y="698" type="curve"/>
      <point x="167.579" y="685.278"/>
      <point x="106.882" y="672.523"/>
      <point x="61.9615" y="669" type="curve"/>
      <point x="60.3329" y="663.3"/>
      <point x="61.3706" y="648.773"/>
      <point x="63.9615" y="641" type="curve"/>
      <point x="120.962" y="636"/>
      <point x="128.962" y="628"/>
    </contour>
    <contour>
      <point x="171" y="0" type="line"/>
      <point x="177" y="0"/>
      <point x="163" y="0"/>
      <point x="170" y="0" type="curve" smooth="yes"/>
      <point x="211" y="0"/>
      <point x="233" y="-2"/>
      <point x="274" y="-2" type="curve" smooth="yes"/>
      <point x="397" y="-2"/>
      <point x="464" y="29"/>
      <point x="464" y="136" type="curve" smooth="yes"/>
      <point x="464" y="230"/>
      <point x="382" y="257"/>
      <point x="281" y="257" type="curve" smooth="yes"/>
      <point x="194" y="257" type="line"/>
      <point x="194" y="224" type="line"/>
      <point x="280" y="224" type="line" smooth="yes"/>
      <point x="355" y="224"/>
      <point x="378" y="179"/>
      <point x="378" y="126" type="curve" smooth="yes"/>
      <point x="378" y="44"/>
      <point x="328" y="31"/>
      <point x="275" y="31" type="curve" smooth="yes"/>
      <point x="234.525" y="31"/>
      <point x="209" y="55.7514"/>
      <point x="209" y="95" type="curve" smooth="yes"/>
      <point x="209" y="122" type="line"/>
      <point x="171" y="122" type="line"/>
    </contour>
    <contour>
      <point x="200" y="392" type="line"/>
      <point x="200" y="431" type="line"/>
      <point x="27" y="431" type="line" smooth="yes"/>
      <point x="18" y="431"/>
      <point x="8" y="416"/>
      <point x="8" y="406" type="curve" smooth="yes"/>
      <point x="8" y="400"/>
      <point x="11" y="392"/>
      <point x="19" y="392" type="curve" smooth="yes"/>
    </contour>
    <contour>
      <point x="216" y="392" type="line"/>
      <point x="349" y="392" type="line" smooth="yes"/>
      <point x="361" y="392"/>
      <point x="370" y="407"/>
      <point x="370" y="418" type="curve" smooth="yes"/>
      <point x="370" y="423"/>
      <point x="367" y="431"/>
      <point x="358" y="431" type="curve" smooth="yes"/>
      <point x="216" y="431" type="line"/>
    </contour>
  </outline>
</glyph>
<glyph name="uni0492" format="2">
  <advance width="498"/>
  <unicode hex="0492"/>
  <outline>
    <component base="uni0413"/>
    <contour>
      <point x="116.84" y="326" type="line"/>
      <point x="116.84" y="287" type="line"/>
      <point x="232.366" y="287" type="line"/>
      <point x="232.366" y="326" type="line"/>
    </contour>
    <contour>
      <point x="209" y="287" type="line"/>
      <point x="209" y="326" type="line"/>
      <point x="36" y="326" type="line" smooth="yes"/>
      <point x="27" y="326"/>
      <point x="17" y="311"/>
      <point x="17" y="301" type="curve" smooth="yes"/>
      <point x="17" y="295"/>
      <point x="20" y="287"/>
      <point x="28" y="287" type="curve" smooth="yes"/>
    </contour>
    <contour>
      <point x="169" y="287" type="line"/>
      <point x="302" y="287" type="line" smooth="yes"/>
      <point x="314" y="287"/>
      <point x="323" y="302"/>
      <point x="323" y="313" type="curve" smooth="yes"/>
      <point x="323" y="318"/>
      <point x="320" y="326"/>
      <point x="311" y="326" type="curve" smooth="yes"/>
      <point x="169" y="326" type="line"/>
    </contour>
  </outline>
</glyph>
<glyph name="uni04AA" format="2">
  <advance width="645"/>
  <unicode hex="04AA"/>
  <outline>
    <contour>
      <point x="218" y="-166" type="line"/>
      <point x="247" y="-211"/>
      <point x="283" y="-233"/>
      <point x="324" y="-233" type="curve" smooth="yes"/>
      <point x="378" y="-233"/>
      <point x="420" y="-204"/>
      <point x="420" y="-149" type="curve" smooth="yes"/>
      <point x="420" y="-98"/>
      <point x="391" y="-43"/>
      <point x="342" y="-10" type="curve"/>
      <point x="347" y="-10"/>
      <point x="351" y="-10"/>
      <point x="356" y="-10" type="curve" smooth="yes"/>
      <point x="453" y="-10"/>
      <point x="542" y="36"/>
      <point x="610" y="125" type="curve"/>
      <point x="605" y="134"/>
      <point x="598" y="140"/>
      <point x="587" y="140" type="curve"/>
      <point x="516" y="62"/>
      <point x="448" y="31"/>
      <point x="355" y="31" type="curve" smooth="yes"/>
      <point x="220" y="31"/>
      <point x="127" y="183"/>
      <point x="127" y="329" type="curve" smooth="yes"/>
      <point x="127" y="415"/>
      <point x="150" y="487"/>
      <point x="186" y="532" type="curve" smooth="yes"/>
      <point x="236" y="593"/>
      <point x="294" y="621"/>
      <point x="346" y="621" type="curve" smooth="yes"/>
      <point x="484" y="621"/>
      <point x="539" y="539"/>
      <point x="565" y="453" type="curve"/>
      <point x="577" y="449"/>
      <point x="587" y="452"/>
      <point x="598" y="458" type="curve"/>
      <point x="593" y="510"/>
      <point x="586" y="558"/>
      <point x="576" y="613" type="curve"/>
      <point x="553" y="615"/>
      <point x="532" y="624"/>
      <point x="504" y="634" type="curve" smooth="yes"/>
      <point x="470" y="646"/>
      <point x="425" y="658"/>
      <point x="357" y="658" type="curve" smooth="yes"/>
      <point x="272" y="658"/>
      <point x="201" y="627"/>
      <point x="142" y="573" type="curve" smooth="yes"/>
      <point x="76" y="512"/>
      <point x="36" y="414"/>
      <point x="36" y="310" type="curve" smooth="yes"/>
      <point x="36" y="164"/>
      <point x="111" y="37"/>
      <point x="262" y="1" type="curve"/>
      <point x="262" y="0" type="line"/>
      <point x="324" y="-19"/>
      <point x="361" y="-77"/>
      <point x="361" y="-144" type="curve" smooth="yes"/>
      <point x="361" y="-169"/>
      <point x="337" y="-195"/>
      <point x="301" y="-195" type="curve" smooth="yes"/>
      <point x="271" y="-195"/>
      <point x="255" y="-182"/>
      <point x="233" y="-159" type="curve"/>
    </contour>
  </outline>
</glyph>
<glyph name="uni04C8" format="2">
  <advance width="554"/>
  <unicode hex="04C8"/>
  <outline>
    <contour>
      <point x="376" y="74" type="line" smooth="yes"/>
      <point x="376" y="-42"/>
      <point x="345" y="-163"/>
      <point x="265" y="-163" type="curve" smooth="yes"/>
      <point x="200" y="-163"/>
      <point x="190" y="-121"/>
      <point x="184" y="-87" type="curve" smooth="yes"/>
      <point x="180" y="-63"/>
      <point x="163" y="-52"/>
      <point x="139" y="-52" type="curve" smooth="yes"/>
      <point x="117" y="-52"/>
      <point x="101" y="-66"/>
      <point x="101" y="-95" type="curve" smooth="yes"/>
      <point x="101" y="-139"/>
      <point x="153" y="-197"/>
      <point x="260" y="-197" type="curve" smooth="yes"/>
      <point x="402" y="-197"/>
      <point x="451" y="-76"/>
      <point x="451" y="74" type="curve" smooth="yes"/>
      <point x="451" y="354" type="line" smooth="yes"/>
      <point x="451" y="395"/>
      <point x="457" y="402"/>
      <point x="491" y="402" type="curve" smooth="yes"/>
      <point x="516" y="402" type="line" smooth="yes"/>
      <point x="520" y="402"/>
      <point x="522" y="404"/>
      <point x="522" y="407" type="curve" smooth="yes"/>
      <point x="522" y="429" type="line"/>
      <point x="521" y="431" type="line"/>
      <point x="504" y="431"/>
      <point x="425" y="429"/>
      <point x="408" y="429" type="curve"/>
      <point x="310" y="431" type="line"/>
      <point x="309" y="429" type="line"/>
      <point x="309" y="407" type="line" smooth="yes"/>
      <point x="309" y="403"/>
      <point x="311" y="402"/>
      <point x="314" y="402" type="curve" smooth="yes"/>
      <point x="335" y="402" type="line" smooth="yes"/>
      <point x="371" y="402"/>
      <point x="376" y="393"/>
      <point x="376" y="354" type="curve" smooth="yes"/>
      <point x="376" y="246" type="line"/>
      <point x="171" y="246" type="line"/>
      <point x="171" y="355" type="line" smooth="yes"/>
      <point x="171" y="396"/>
      <point x="178" y="402"/>
      <point x="212" y="402" type="curve" smooth="yes"/>
      <point x="232" y="402" type="line" smooth="yes"/>
      <point x="236" y="402"/>
      <point x="238" y="404"/>
      <point x="238" y="408" type="curve" smooth="yes"/>
      <point x="238" y="429" type="line"/>
      <point x="237" y="431" type="line"/>
      <point x="221" y="431"/>
      <point x="145" y="428"/>
      <point x="129" y="428" type="curve"/>
      <point x="26" y="431" type="line"/>
      <point x="25" y="429" type="line"/>
      <point x="25" y="407" type="line" smooth="yes"/>
      <point x="25" y="403"/>
      <point x="27" y="402"/>
      <point x="30" y="402" type="curve" smooth="yes"/>
      <point x="56" y="402" type="line" smooth="yes"/>
      <point x="91" y="402"/>
      <point x="97" y="393"/>
      <point x="97" y="355" type="curve" smooth="yes"/>
      <point x="97" y="75" type="line" smooth="yes"/>
      <point x="97" y="37"/>
      <point x="92" y="29"/>
      <point x="56" y="28" type="curve"/>
      <point x="30" y="28" type="line" smooth="yes"/>
      <point x="27" y="28"/>
      <point x="25" y="26"/>
      <point x="25" y="23" type="curve" smooth="yes"/>
      <point x="25" y="1" type="line"/>
      <point x="26" y="-1" type="line"/>
      <point x="40" y="-1"/>
      <point x="115" y="1"/>
      <point x="129" y="1" type="curve"/>
      <point x="237" y="-1" type="line"/>
      <point x="238" y="1" type="line"/>
      <point x="238" y="22" type="line" smooth="yes"/>
      <point x="238" y="26"/>
      <point x="236" y="28"/>
      <point x="232" y="28" type="curve" smooth="yes"/>
      <point x="212" y="28" type="line"/>
      <point x="178" y="29"/>
      <point x="171" y="35"/>
      <point x="171" y="75" type="curve" smooth="yes"/>
      <point x="171" y="212" type="line"/>
      <point x="376" y="212" type="line"/>
    </contour>
  </outline>
</glyph>
<glyph name="uni05D2" format="2">
  <advance width="335"/>
  <unicode hex="05D2"/>
  <outline>
    <contour>
      <point x="234" y="296" type="curve" smooth="yes"/>
      <point x="234" y="315"/>
      <point x="236" y="344"/>
      <point x="238" y="372" type="curve" smooth="yes"/>
      <point x="240" y="401"/>
      <point x="242" y="430"/>
      <point x="242" y="448" type="curve" smooth="yes"/>
      <point x="242" y="509"/>
      <point x="200" y="520"/>
      <point x="158" y="520" type="curve" smooth="yes"/>
      <point x="133" y="520"/>
      <point x="100" y="520"/>
      <point x="93" y="554" type="curve"/>
      <point x="93" y="554"/>
      <point x="49" y="544"/>
      <point x="49" y="476" type="curve"/>
      <point x="49" y="476"/>
      <point x="49" y="476"/>
      <point x="49" y="476" type="curve"/>
      <point x="49" y="423"/>
      <point x="107.958" y="412.72"/>
      <point x="127" y="410" type="curve" smooth="yes"/>
      <point x="177.961" y="402.72"/>
      <point x="210" y="393"/>
      <point x="210" y="296" type="curve" smooth="yes"/>
      <point x="210" y="164"/>
      <point x="167" y="122"/>
      <point x="69" y="102" type="curve"/>
      <point x="65" y="101"/>
      <point x="61" y="101"/>
      <point x="57" y="100" type="curve" smooth="yes"/>
      <point x="35" y="95"/>
      <point x="27" y="73"/>
      <point x="22" y="47" type="curve" smooth="yes"/>
      <point x="21" y="41"/>
      <point x="21" y="36"/>
      <point x="21" y="31" type="curve" smooth="yes"/>
      <point x="21" y="22"/>
      <point x="22" y="14"/>
      <point x="23" y="8" type="curve"/>
      <point x="24" y="5"/>
      <point x="24" y="2"/>
      <point x="24" y="0" type="curve"/>
      <point x="146" y="4" type="line"/>
      <point x="171" y="55"/>
      <point x="195" y="107"/>
      <point x="220" y="158" type="curve"/>
      <point x="222" y="158"/>
      <point x="225" y="158"/>
      <point x="227" y="158" type="curve"/>
      <point x="257" y="109"/>
      <point x="255" y="-6"/>
      <point x="301" y="-6" type="curve"/>
      <point x="307" y="3"/>
      <point x="309" y="17"/>
      <point x="309" y="30" type="curve" smooth="yes"/>
      <point x="309" y="42"/>
      <point x="307" y="55"/>
      <point x="305" y="65" type="curve" smooth="yes"/>
      <point x="298" y="102"/>
      <point x="284" y="135"/>
      <point x="270" y="168" type="curve" smooth="yes"/>
      <point x="252" y="210"/>
      <point x="234" y="251"/>
    </contour>
  </outline>
</glyph>
<glyph name="uni05D8" format="2">
  <advance width="486"/>
  <unicode hex="05D8"/>
  <outline>
    <contour>
      <point x="106" y="0" type="curve"/>
      <point x="385" y="0" type="line"/>
      <point x="427" y="117"/>
      <point x="452" y="222"/>
      <point x="452" y="310" type="curve" smooth="yes"/>
      <point x="452" y="495"/>
      <point x="386" y="527"/>
      <point x="345" y="527" type="curve" smooth="yes"/>
      <point x="284.223" y="527"/>
      <point x="232.48" y="461.83"/>
      <point x="187" y="328" type="curve"/>
      <point x="211" y="316" type="line"/>
      <point x="260" y="400"/>
      <point x="291" y="419"/>
      <point x="336" y="419" type="curve" smooth="yes"/>
      <point x="390" y="419"/>
      <point x="421" y="381"/>
      <point x="421" y="310" type="curve" smooth="yes"/>
      <point x="421" y="230"/>
      <point x="403" y="158"/>
      <point x="375" y="100" type="curve"/>
      <point x="152" y="100" type="line"/>
      <point x="119" y="176"/>
      <point x="97" y="245"/>
      <point x="97" y="308" type="curve" smooth="yes"/>
      <point x="97" y="337.745"/>
      <point x="110.475" y="384.015"/>
      <point x="123.064" y="425.471" type="curve"/>
      <point x="103.326" y="425.167" type="line"/>
      <point x="75.38" y="358.565"/>
      <point x="65.9219" y="311.393"/>
      <point x="65.875" y="267.736" type="curve" smooth="yes"/>
      <point x="65.7799" y="179.252"/>
      <point x="106.345" y="117.528"/>
    </contour>
    <contour>
      <point x="171" y="416" type="curve"/>
      <point x="175" y="430"/>
      <point x="177" y="444"/>
      <point x="177" y="458" type="curve" smooth="yes"/>
      <point x="177" y="499"/>
      <point x="158" y="519"/>
      <point x="119" y="521" type="curve" smooth="yes"/>
      <point x="86.0282" y="522.691"/>
      <point x="69" y="535"/>
      <point x="66" y="559" type="curve"/>
      <point x="39.5411" y="540.072"/>
      <point x="28" y="516.383"/>
      <point x="28" y="481" type="curve" smooth="yes"/>
      <point x="28" y="426.533"/>
      <point x="71.9236" y="408.215"/>
      <point x="117.354" y="408.143" type="curve" smooth="yes"/>
      <point x="135.954" y="408.113"/>
      <point x="154.806" y="411.142"/>
    </contour>
  </outline>
</glyph>
<glyph name="uni1D43" format="2">
  <advance width="307"/>
  <unicode hex="1D43"/>
  <outline>
    <contour>
      <point x="192" y="529" type="curve"/>
      <point x="134" y="514" type="line" smooth="yes"/>
      <point x="71.0704" y="497.725"/>
      <point x="31" y="470"/>
      <point x="31" y="428" type="curve"/>
      <point x="31" y="428"/>
      <point x="31" y="428"/>
      <point x="31" y="428" type="curve"/>
      <point x="31" y="405"/>
      <point x="41" y="386"/>
      <point x="57" y="374" type="curve" smooth="yes"/>
      <point x="71" y="364"/>
      <point x="89" y="358"/>
      <point x="108" y="358" type="curve" smooth="yes"/>
      <point x="141" y="358"/>
      <point x="159" y="367"/>
      <point x="193" y="397" type="curve"/>
      <point x="195" y="384"/>
      <point x="203" y="370"/>
      <point x="216" y="363" type="curve"/>
      <point x="222" y="360"/>
      <point x="228" y="358"/>
      <point x="235" y="358" type="curve" smooth="yes"/>
      <point x="254" y="358"/>
      <point x="273" y="370"/>
      <point x="282" y="380" type="curve"/>
      <point x="283" y="388"/>
      <point x="279" y="393"/>
      <point x="272" y="396" type="curve"/>
      <point x="269" y="393"/>
      <point x="264" y="391"/>
      <point x="260" y="391" type="curve" smooth="yes"/>
      <point x="252" y="391"/>
      <point x="248" y="403"/>
      <point x="246" y="432" type="curve"/>
      <point x="246" y="437"/>
      <point x="246" y="442"/>
      <point x="246" y="448" type="curve" smooth="yes"/>
      <point x="246" y="515" type="line" smooth="yes"/>
      <point x="246" y="517"/>
      <point x="246" y="520"/>
      <point x="246" y="523" type="curve" smooth="yes"/>
      <point x="246" y="570"/>
      <point x="232" y="599"/>
      <point x="211" y="615" type="curve"/>
      <point x="193" y="630"/>
      <point x="170" y="636"/>
      <point x="147" y="637" type="curve"/>
      <point x="145" y="637"/>
      <point x="142" y="637"/>
      <point x="140" y="637" type="curve" smooth="yes"/>
      <point x="98" y="637"/>
      <point x="36" y="604"/>
      <point x="36" y="564" type="curve" smooth="yes"/>
      <point x="36" y="549"/>
      <point x="47" y="539"/>
      <point x="62" y="539" type="curve"/>
      <point x="62" y="539"/>
      <point x="62" y="539"/>
      <point x="62" y="539" type="curve"/>
      <point x="81" y="539"/>
      <point x="88" y="552"/>
      <point x="88" y="560" type="curve" smooth="yes"/>
      <point x="88" y="563"/>
      <point x="88" y="565"/>
      <point x="87" y="567" type="curve"/>
      <point x="87" y="569"/>
      <point x="87" y="571"/>
      <point x="86" y="572" type="curve"/>
      <point x="85" y="574"/>
      <point x="84" y="578"/>
      <point x="84" y="585" type="curve" smooth="yes"/>
      <point x="84" y="601"/>
      <point x="105" y="612"/>
      <point x="138" y="612" type="curve" smooth="yes"/>
      <point x="161" y="612"/>
      <point x="192" y="604"/>
    </contour>
    <contour>
      <point x="192" y="423" type="line"/>
      <point x="166" y="400"/>
      <point x="149" y="390"/>
      <point x="128" y="390" type="curve" smooth="yes"/>
      <point x="94" y="390"/>
      <point x="83" y="410"/>
      <point x="83" y="431" type="curve" smooth="yes"/>
      <point x="83" y="462"/>
      <point x="107" y="480"/>
      <point x="192" y="502" type="curve"/>
    </contour>
  </outline>
</glyph>
<glyph name="uni1FC1" format="2">
  <advance width="368"/>
  <unicode hex="1FC1"/>
  <anchor x="185" y="510" name="_t.gr_UC"/>
  <anchor x="185" y="510" name="_t.gr_LC"/>
  <outline>
    <contour>
      <point x="54" y="557" type="curve" smooth="yes"/>
      <point x="54" y="531"/>
      <point x="75" y="510"/>
      <point x="101" y="510" type="curve" smooth="yes"/>
      <point x="127" y="510"/>
      <point x="148" y="531"/>
      <point x="148" y="557" type="curve" smooth="yes"/>
      <point x="148" y="583"/>
      <point x="127" y="605"/>
      <point x="101" y="605" type="curve" smooth="yes"/>
      <point x="75" y="605"/>
      <point x="54" y="583"/>
    </contour>
    <contour>
      <point x="223" y="557" type="curve" smooth="yes"/>
      <point x="223" y="531"/>
      <point x="244" y="510"/>
      <point x="270" y="510" type="curve" smooth="yes"/>
      <point x="296" y="510"/>
      <point x="317" y="531"/>
      <point x="317" y="557" type="curve" smooth="yes"/>
      <point x="317" y="583"/>
      <point x="296" y="605"/>
      <point x="270" y="605" type="curve" smooth="yes"/>
      <point x="244" y="605"/>
      <point x="223" y="583"/>
    </contour>
    <contour>
      <point x="248.5" y="681" type="curve" smooth="yes"/>
      <point x="229.5" y="681"/>
      <point x="215.363" y="690.803"/>
      <point x="199.5" y="702" type="curve" smooth="yes"/>
      <point x="181.36" y="714.804"/>
      <point x="161.5" y="728"/>
      <point x="132.5" y="728" type="curve" smooth="yes"/>
      <point x="91.5" y="728"/>
      <point x="70.5" y="695"/>
      <point x="57.5" y="640" type="curve"/>
      <point x="62.9745" y="636.845"/>
      <point x="70.9573" y="635.4"/>
      <point x="79.5" y="635" type="curve"/>
      <point x="90.5" y="665"/>
      <point x="104.5" y="681"/>
      <point x="125.5" y="681" type="curve" smooth="yes"/>
      <point x="144.5" y="681"/>
      <point x="161.27" y="669.647"/>
      <point x="179.5" y="658" type="curve" smooth="yes"/>
      <point x="197.277" y="646.643"/>
      <point x="215.5" y="635"/>
      <point x="236.5" y="635" type="curve" smooth="yes"/>
      <point x="279.5" y="635"/>
      <point x="305.5" y="665"/>
      <point x="317.5" y="721" type="curve"/>
      <point x="311.217" y="725.825"/>
      <point x="304.535" y="728"/>
      <point x="295.5" y="728" type="curve"/>
      <point x="282.5" y="694"/>
      <point x="268.5" y="681"/>
    </contour>
  </outline>
</glyph>
<glyph name="uni2016" format="2">
  <advance width="328"/>
  <unicode hex="2016"/>
  <outline>
    <contour>
      <point x="124" y="-240.347" type="curve"/>
      <point x="124" y="720.308" type="line"/>
      <point x="115.48" y="725.961"/>
      <point x="88.52" y="725.961"/>
      <point x="80" y="720.308" type="curve"/>
      <point x="80" y="-240.347" type="line"/>
      <point x="88.52" y="-246"/>
      <point x="115.48" y="-246"/>
    </contour>
    <contour>
      <point x="248" y="-240.347" type="curve"/>
      <point x="248" y="720.308" type="line"/>
      <point x="239.48" y="725.961"/>
      <point x="212.52" y="725.961"/>
      <point x="204" y="720.308" type="curve"/>
      <point x="204" y="-240.347" type="line"/>
      <point x="212.52" y="-246"/>
      <point x="239.48" y="-246"/>
    </contour>
  </outline>
</glyph>
<glyph name="daggerdbl" format="2">
  <advance width="588"/>
  <unicode hex="2021"/>
  <outline>
    <contour>
      <point x="135" y="0" type="curve" smooth="yes"/>
      <point x="202" y="0"/>
      <point x="257" y="13"/>
      <point x="300" y="40" type="curve"/>
      <point x="276" y="-11"/>
      <point x="264" y="-73"/>
      <point x="264" y="-147" type="curve" smooth="yes"/>
      <point x="264" y="-181"/>
      <point x="285" y="-207"/>
      <point x="309" y="-207" type="curve" smooth="yes"/>
      <point x="335" y="-207"/>
      <point x="353" y="-177"/>
      <point x="353" y="-147" type="curve" smooth="yes"/>
      <point x="353" y="-73"/>
      <point x="341" y="-11"/>
      <point x="317" y="40" type="curve"/>
      <point x="362" y="13"/>
      <point x="417" y="0"/>
      <point x="482" y="0" type="curve" smooth="yes"/>
      <point x="511" y="0"/>
      <point x="536" y="21"/>
      <point x="536" y="50" type="curve" smooth="yes"/>
      <point x="536" y="80"/>
      <point x="510" y="99"/>
      <point x="482" y="99" type="curve" smooth="yes"/>
      <point x="417" y="99"/>
      <point x="362" y="86"/>
      <point x="317" y="60" type="curve"/>
      <point x="317" y="143"/>
      <point x="333" y="205"/>
      <point x="364" y="245" type="curve"/>
      <point x="332" y="285"/>
      <point x="317" y="347"/>
      <point x="317" y="430" type="curve"/>
      <point x="360" y="404"/>
      <point x="416" y="391"/>
      <point x="482" y="391" type="curve" smooth="yes"/>
      <point x="512" y="391"/>
      <point x="536" y="412"/>
      <point x="536" y="440" type="curve" smooth="yes"/>
      <point x="536" y="468"/>
      <point x="513" y="491"/>
      <point x="482" y="491" type="curve" smooth="yes"/>
      <point x="416" y="491"/>
      <point x="360" y="477"/>
      <point x="317" y="450" type="curve"/>
      <point x="341" y="499"/>
      <point x="353" y="561"/>
      <point x="353" y="637" type="curve" smooth="yes"/>
      <point x="353" y="669"/>
      <point x="333" y="697"/>
      <point x="309" y="697" type="curve" smooth="yes"/>
      <point x="283" y="697"/>
      <point x="264" y="668"/>
      <point x="264" y="637" type="curve" smooth="yes"/>
      <point x="264" y="562"/>
      <point x="276" y="500"/>
      <point x="300" y="450" type="curve"/>
      <point x="261" y="474"/>
      <point x="208" y="491"/>
      <point x="135" y="491" type="curve" smooth="yes"/>
      <point x="106" y="491"/>
      <point x="82" y="468"/>
      <point x="82" y="440" type="curve" smooth="yes"/>
      <point x="82" y="412"/>
      <point x="105" y="391"/>
      <point x="135" y="391" type="curve" smooth="yes"/>
      <point x="204" y="391"/>
      <point x="259" y="404"/>
      <point x="300" y="430" type="curve"/>
      <point x="300" y="341"/>
      <point x="285" y="279"/>
      <point x="254" y="245" type="curve"/>
      <point x="285" y="208"/>
      <point x="300" y="146"/>
      <point x="300" y="60" type="curve"/>
      <point x="262" y="83"/>
      <point x="207" y="99"/>
      <point x="135" y="99" type="curve" smooth="yes"/>
      <point x="110" y="99"/>
      <point x="82" y="80"/>
      <point x="82" y="50" type="curve" smooth="yes"/>
      <point x="82" y="21"/>
      <point x="107" y="0"/>
    </contour>
  </outline>
</glyph>
<glyph name="uni2023" format="2">
  <advance width="375"/>
  <unicode hex="2023"/>
  <outline>
    <contour>
      <point x="73" y="84" type="line"/>
      <point x="337" y="232" type="line"/>
      <point x="73" y="380" type="line"/>
    </contour>
  </outline>
</glyph>
<glyph name="uni2089" format="2">
  <advance width="312"/>
  <unicode hex="2089"/>
  <outline>
    <contour>
      <point x="40.837" y="63.1633" type="curve" smooth="yes"/>
      <point x="40.837" y="46.2781"/>
      <point x="49.837" y="-32.357"/>
      <point x="146.837" y="-32.357" type="curve" smooth="yes"/>
      <point x="171.837" y="-32.357"/>
      <point x="198.837" y="-15.357"/>
      <point x="213.837" y="-1.39754" type="curve"/>
      <point x="201.837" y="-59.357"/>
      <point x="167.837" y="-126.357"/>
      <point x="58.837" y="-145.357" type="curve"/>
      <point x="58.837" y="-164.357" type="line"/>
      <point x="211.837" y="-152.357"/>
      <point x="271.837" y="-49.357"/>
      <point x="271.837" y="32.3727" type="curve" smooth="yes"/>
      <point x="271.837" y="109.019"/>
      <point x="226.88" y="164.643"/>
      <point x="147.837" y="164.643" type="curve" smooth="yes"/>
      <point x="68.837" y="164.643"/>
      <point x="40.837" y="98.92"/>
    </contour>
    <contour>
      <point x="96.837" y="68.1295" type="curve" smooth="yes"/>
      <point x="96.837" y="105.873"/>
      <point x="103.837" y="139.643"/>
      <point x="147.837" y="139.643" type="curve" smooth="yes"/>
      <point x="175.837" y="139.643"/>
      <point x="215.837" y="116.798"/>
      <point x="215.837" y="34.3592" type="curve" smooth="yes"/>
      <point x="215.837" y="14.4944" type="line"/>
      <point x="193.837" y="-2.39078"/>
      <point x="171.837" y="-7.35699"/>
      <point x="157.837" y="-7.35699" type="curve" smooth="yes"/>
      <point x="101.837" y="-7.35699"/>
      <point x="96.837" y="46.2781"/>
    </contour>
  </outline>
</glyph>
<glyph name="lira" format="2">
  <advance width="489"/>
  <unicode hex="20A4"/>
  <outline>
    <contour>
      <point x="150.611" y="304.778" type="line" smooth="yes"/>
      <point x="150.611" y="224.55"/>
      <point x="143.323" y="126.99"/>
      <point x="74.6465" y="71.7792" type="curve"/>
      <point x="43.6513" y="56.816"/>
      <point x="18" y="34.3712"/>
      <point x="18" y="8.71999" type="curve" smooth="yes"/>
      <point x="18" y="-5.17441"/>
      <point x="31.8944" y="-18"/>
      <point x="46.8576" y="-18" type="curve" smooth="yes"/>
      <point x="67.1648" y="-18"/>
      <point x="92.816" y="-5.1744"/>
      <point x="92.816" y="23.6832" type="curve" smooth="yes"/>
      <point x="92.816" y="35.44"/>
      <point x="102.435" y="53.6096"/>
      <point x="139.843" y="53.6096" type="curve" smooth="yes"/>
      <point x="168.701" y="53.6096"/>
      <point x="195.355" y="39.6002"/>
      <point x="223.21" y="23.6832" type="curve" smooth="yes"/>
      <point x="255.208" y="5.39838"/>
      <point x="289.475" y="-12.656"/>
      <point x="331.158" y="-12.656" type="curve" smooth="yes"/>
      <point x="410.25" y="-12.656"/>
      <point x="459.414" y="26.8896"/>
      <point x="479.722" y="82.4672" type="curve"/>
      <point x="479.722" y="85.6736"/>
      <point x="475.446" y="88.88"/>
      <point x="472.24" y="88.88" type="curve"/>
      <point x="445.52" y="51.472"/>
      <point x="382.461" y="43.9904"/>
      <point x="350.397" y="43.9904" type="curve" smooth="yes"/>
      <point x="321.539" y="43.9904"/>
      <point x="303.296" y="52.4304"/>
      <point x="284.131" y="65.3664" type="curve" smooth="yes"/>
      <point x="260.543" y="81.2884"/>
      <point x="236.035" y="97.4304"/>
      <point x="169.77" y="97.4304" type="curve" smooth="yes"/>
      <point x="166.563" y="97.4304"/>
      <point x="159.082" y="97.4304"/>
      <point x="154.806" y="96.3616" type="curve"/>
      <point x="153.738" y="97.4304" type="line"/>
      <point x="218.794" y="148.256"/>
      <point x="230.737" y="228.659"/>
      <point x="230.691" y="304.778" type="curve" smooth="yes"/>
      <point x="230.611" y="439.446" type="line" smooth="yes"/>
      <point x="230.556" y="532.432"/>
      <point x="274.653" y="602.973"/>
      <point x="324.064" y="602.973" type="curve" smooth="yes"/>
      <point x="372.402" y="602.973"/>
      <point x="382.069" y="558.083"/>
      <point x="416.443" y="558.083" type="curve" smooth="yes"/>
      <point x="442.223" y="558.083"/>
      <point x="460.484" y="574.115"/>
      <point x="460.484" y="600.835" type="curve" smooth="yes"/>
      <point x="460.484" y="638.243"/>
      <point x="399.787" y="650"/>
      <point x="375.296" y="650" type="curve" smooth="yes"/>
      <point x="259.227" y="650"/>
      <point x="150.612" y="536.707"/>
      <point x="150.612" y="421.277" type="curve" smooth="yes"/>
    </contour>
    <contour>
      <point x="226" y="363.038" type="line"/>
      <point x="226" y="402.038" type="line"/>
      <point x="53" y="402.038" type="line" smooth="yes"/>
      <point x="44" y="402.038"/>
      <point x="34" y="387.038"/>
      <point x="34" y="377.038" type="curve" smooth="yes"/>
      <point x="34" y="371.038"/>
      <point x="37" y="363.038"/>
      <point x="45" y="363.038" type="curve" smooth="yes"/>
    </contour>
    <contour>
      <point x="226" y="265.778" type="line"/>
      <point x="226" y="304.778" type="line"/>
      <point x="53" y="304.778" type="line" smooth="yes"/>
      <point x="44" y="304.778"/>
      <point x="34" y="289.778"/>
      <point x="34" y="279.778" type="curve" smooth="yes"/>
      <point x="34" y="273.778"/>
      <point x="37" y="265.778"/>
      <point x="45" y="265.778" type="curve" smooth="yes"/>
    </contour>
    <contour>
      <point x="222.965" y="363.038" type="line"/>
      <point x="355.965" y="363.038" type="line" smooth="yes"/>
      <point x="367.965" y="363.038"/>
      <point x="376.965" y="378.038"/>
      <point x="376.965" y="389.038" type="curve" smooth="yes"/>
      <point x="376.965" y="394.038"/>
      <point x="373.965" y="402.038"/>
      <point x="364.965" y="402.038" type="curve" smooth="yes"/>
      <point x="222.965" y="402.038" type="line"/>
    </contour>
    <contour>
      <point x="222.965" y="265.778" type="line"/>
      <point x="355.965" y="265.778" type="line" smooth="yes"/>
      <point x="367.965" y="265.778"/>
      <point x="376.965" y="280.778"/>
      <point x="376.965" y="291.778" type="curve" smooth="yes"/>
      <point x="376.965" y="296.778"/>
      <point x="373.965" y="304.778"/>
      <point x="364.965" y="304.778" type="curve" smooth="yes"/>
      <point x="222.965" y="304.778" type="line"/>
    </contour>
  </outline>
</glyph>
<glyph name="tugrik" format="2">
  <advance width="597"/>
  <unicode hex="20AE"/>
  <outline>
    <component base="T"/>
    <contour>
      <point x="337.006" y="382.507" type="line"/>
      <point x="487" y="469" type="line"/>
      <point x="487" y="479"/>
      <point x="479.677" y="494.741"/>
      <point x="469" y="499" type="curve"/>
      <point x="336.976" y="423.558" type="line"/>
    </contour>
    <contour>
      <point x="182" y="294" type="curve"/>
      <point x="277.985" y="349.509" type="line"/>
      <point x="278.008" y="390.47" type="line"/>
      <point x="164" y="325" type="line"/>
      <point x="164" y="310.302"/>
      <point x="172.705" y="299.27"/>
    </contour>
    <contour>
      <point x="337.006" y="282.507" type="line"/>
      <point x="487" y="369" type="line"/>
      <point x="487" y="379"/>
      <point x="479.677" y="394.741"/>
      <point x="469" y="399" type="curve"/>
      <point x="336.976" y="323.558" type="line"/>
    </contour>
    <contour>
      <point x="182" y="194" type="curve"/>
      <point x="277.985" y="249.509" type="line"/>
      <point x="278.008" y="290.47" type="line"/>
      <point x="164" y="225" type="line"/>
      <point x="164" y="210.302"/>
      <point x="172.705" y="199.27"/>
    </contour>
  </outline>
</glyph>
<glyph name="lari" format="2">
  <advance width="548"/>
  <unicode hex="20BE"/>
  <outline>
    <contour>
      <point x="245.809" y="601.44" type="line"/>
      <point x="232.725" y="588.3"/>
      <point x="219.944" y="573.482"/>
      <point x="205.749" y="561.595" type="curve"/>
      <point x="205.888" y="511.236" type="line"/>
      <point x="108.825" y="482.203"/>
      <point x="36.7147" y="388.899"/>
      <point x="36.7147" y="286.914" type="curve" smooth="yes"/>
      <point x="36.7147" y="220.025"/>
      <point x="76.8749" y="113.715"/>
      <point x="143.372" y="83.6958" type="curve"/>
      <point x="76.4206" y="83.6958" type="line"/>
      <point x="36.7906" y="44.0658" type="line"/>
      <point x="435.076" y="44.0658" type="line"/>
      <point x="474.567" y="83.6958" type="line"/>
      <point x="266.976" y="83.759" type="line" smooth="yes"/>
      <point x="164.928" y="83.7901"/>
      <point x="76.4207" y="178.83"/>
      <point x="76.4207" y="279.117" type="curve" smooth="yes"/>
      <point x="76.4207" y="376.75"/>
      <point x="125.145" y="427.864"/>
      <point x="205.888" y="469.18" type="curve"/>
      <point x="205.888" y="282.693" type="line"/>
      <point x="245.733" y="322.387" type="line"/>
      <point x="245.809" y="479.479" type="line"/>
      <point x="252.464" y="480.86"/>
      <point x="262.113" y="481.578"/>
      <point x="279.144" y="481.589" type="curve" smooth="yes"/>
      <point x="286.792" y="481.594"/>
      <point x="299.871" y="480.112"/>
      <point x="305.216" y="479.403" type="curve"/>
      <point x="305.279" y="282.618" type="line"/>
      <point x="345.238" y="322.323" type="line"/>
      <point x="345.238" y="469.028" type="line"/>
      <point x="419.666" y="453.64"/>
      <point x="475.288" y="355.31"/>
      <point x="474.706" y="282.908" type="curve"/>
      <point x="511.442" y="319.644" type="line"/>
      <point x="511.505" y="320.314" type="line"/>
      <point x="511.505" y="391.348"/>
      <point x="415.343" y="502.805"/>
      <point x="345.301" y="511.16" type="curve"/>
      <point x="345.238" y="601.326" type="line"/>
      <point x="305.216" y="561.519" type="line"/>
      <point x="305.242" y="519.64" type="line"/>
      <point x="299.342" y="521.484"/>
      <point x="286.195" y="521.573"/>
      <point x="273.03" y="521.573" type="curve" smooth="yes"/>
      <point x="264.709" y="521.573"/>
      <point x="248.892" y="520.146"/>
      <point x="245.872" y="519.324" type="curve"/>
    </contour>
  </outline>
</glyph>
<glyph name="uni20C0" format="2">
  <advance width="532"/>
  <unicode hex="20C0"/>
  <outline>
    <contour>
      <point x="305.542" y="658" type="curve" smooth="yes"/>
      <point x="156.678" y="658.043"/>
      <point x="36" y="537.322"/>
      <point x="36" y="388.458" type="curve" smooth="yes"/>
      <point x="36" y="239.594"/>
      <point x="156.678" y="118.874"/>
      <point x="305.542" y="118.916" type="curve" smooth="yes"/>
      <point x="377.005" y="118.937"/>
      <point x="445.518" y="147.419"/>
      <point x="496.018" y="197.983" type="curve"/>
      <point x="439.997" y="254.003" type="line"/>
      <point x="404.349" y="218.311"/>
      <point x="355.987" y="198.237"/>
      <point x="305.542" y="198.193" type="curve" smooth="yes"/>
      <point x="200.462" y="198.193"/>
      <point x="115.277" y="283.378"/>
      <point x="115.277" y="388.458" type="curve" smooth="yes"/>
      <point x="115.277" y="493.539"/>
      <point x="200.462" y="578.723"/>
      <point x="305.542" y="578.723" type="curve" smooth="yes"/>
      <point x="355.987" y="578.679"/>
      <point x="404.349" y="558.605"/>
      <point x="439.997" y="522.913" type="curve"/>
      <point x="496.018" y="578.934" type="line"/>
      <point x="445.518" y="629.497"/>
      <point x="377.005" y="657.979"/>
    </contour>
    <contour>
      <point x="36" y="79.2771" type="line"/>
      <point x="36" y="0" type="line"/>
      <point x="496.018" y="0" type="line"/>
      <point x="496.018" y="79.2771" type="line"/>
    </contour>
  </outline>
</glyph>
<glyph name="uni2157" format="2">
  <advance width="605"/>
  <unicode hex="2157"/>
  <outline>
    <contour>
      <point x="186" y="593" type="curve" smooth="yes"/>
      <point x="186" y="552.88"/>
      <point x="159.987" y="526.135"/>
      <point x="115" y="520" type="curve"/>
      <point x="112" y="511"/>
      <point x="112" y="500"/>
      <point x="117" y="493" type="curve"/>
      <point x="122.246" y="494.06"/>
      <point x="130" y="495"/>
      <point x="137" y="495" type="curve" smooth="yes"/>
      <point x="184.041" y="495"/>
      <point x="212" y="472.26"/>
      <point x="212" y="434" type="curve" smooth="yes"/>
      <point x="212" y="386.275"/>
      <point x="183.721" y="358"/>
      <point x="137.622" y="358" type="curve" smooth="yes"/>
      <point x="115.362" y="358"/>
      <point x="105.097" y="360.963"/>
      <point x="98.181" y="369.385" type="curve"/>
      <point x="93.9162" y="386.298"/>
      <point x="83.6604" y="393.424"/>
      <point x="64.7679" y="393.155" type="curve" smooth="yes"/>
      <point x="51.0381" y="392.959"/>
      <point x="38" y="384.003"/>
      <point x="38" y="372.271" type="curve" smooth="yes"/>
      <point x="38" y="349.487"/>
      <point x="86.9583" y="328"/>
      <point x="138.873" y="328" type="curve" smooth="yes"/>
      <point x="217.475" y="328"/>
      <point x="274" y="375.106"/>
      <point x="274" y="442" type="curve" smooth="yes"/>
      <point x="274" y="487.237"/>
      <point x="239.969" y="523.821"/>
      <point x="194" y="528" type="curve" smooth="yes"/>
      <point x="192.4" y="528.145"/>
      <point x="192.359" y="531.089"/>
      <point x="194" y="532" type="curve" smooth="yes"/>
      <point x="228.096" y="550.921"/>
      <point x="245" y="572.796"/>
      <point x="245" y="598" type="curve" smooth="yes"/>
      <point x="245" y="634.547"/>
      <point x="212.653" y="657"/>
      <point x="160" y="657" type="curve" smooth="yes"/>
      <point x="101.592" y="657"/>
      <point x="46" y="625.303"/>
      <point x="46" y="592" type="curve" smooth="yes"/>
      <point x="46" y="589"/>
      <point x="50" y="574"/>
      <point x="69" y="574" type="curve" smooth="yes"/>
      <point x="84.7347" y="574"/>
      <point x="92.9455" y="582.819"/>
      <point x="96" y="603" type="curve"/>
      <point x="103" y="619"/>
      <point x="131" y="627"/>
      <point x="148" y="627" type="curve" smooth="yes"/>
      <point x="170.529" y="627"/>
      <point x="186" y="613.158"/>
    </contour>
    <contour>
      <point x="522.794" y="656.717" type="line"/>
      <point x="55.6015" y="-10" type="line"/>
      <point x="96.6015" y="-10" type="line"/>
      <point x="564.794" y="656.717" type="line"/>
    </contour>
    <contour>
      <point x="500" y="101.888" type="curve" smooth="yes"/>
      <point x="500" y="50.9194"/>
      <point x="477.224" y="23"/>
      <point x="436.752" y="23" type="curve" smooth="yes"/>
      <point x="412.555" y="23"/>
      <point x="402.475" y="32.9795"/>
      <point x="396.877" y="38.4169" type="curve" smooth="yes"/>
      <point x="386.426" y="48.5681"/>
      <point x="380.156" y="54"/>
      <point x="369.595" y="54" type="curve" smooth="yes"/>
      <point x="355.19" y="54"/>
      <point x="345" y="44.2727"/>
      <point x="345" y="34.7192" type="curve" smooth="yes"/>
      <point x="345" y="14.3085"/>
      <point x="391.514" y="-4"/>
      <point x="434.242" y="-4" type="curve" smooth="yes"/>
      <point x="504.827" y="-4"/>
      <point x="557" y="45.9619"/>
      <point x="557" y="116.242" type="curve" smooth="yes"/>
      <point x="557" y="178.213"/>
      <point x="516.435" y="214.85"/>
      <point x="442.978" y="214.85" type="curve" smooth="yes"/>
      <point x="427.668" y="214.85"/>
      <point x="412.648" y="213.045"/>
      <point x="401.6" y="208.685" type="curve"/>
      <point x="413.458" y="293.945" type="line"/>
      <point x="431.481" y="291.023"/>
      <point x="446.295" y="289.987"/>
      <point x="472.091" y="289.987" type="curve" smooth="yes"/>
      <point x="500.345" y="289.987"/>
      <point x="523.007" y="291.23"/>
      <point x="542.997" y="293.987" type="curve"/>
      <point x="548.652" y="327.232" type="line"/>
      <point x="547.342" y="328.743" type="line"/>
      <point x="521.838" y="325.304"/>
      <point x="495.601" y="325.383"/>
      <point x="470.057" y="325.383" type="curve" smooth="yes"/>
      <point x="441.963" y="325.383"/>
      <point x="411.067" y="324.798"/>
      <point x="382.997" y="327.987" type="curve"/>
      <point x="361.546" y="173.755" type="line"/>
      <point x="373.045" y="168.447" type="line"/>
      <point x="383.486" y="180.284"/>
      <point x="403.989" y="188"/>
      <point x="427.103" y="188" type="curve" smooth="yes"/>
      <point x="473.64" y="188"/>
      <point x="500" y="156.72"/>
    </contour>
  </outline>
</glyph>
<glyph name="seveneighths" format="2">
  <advance width="615"/>
  <unicode hex="215E"/>
  <outline>
    <contour>
      <point x="487.794" y="656.717" type="line"/>
      <point x="20.6015" y="-10" type="line"/>
      <point x="61.6015" y="-10" type="line"/>
      <point x="529.794" y="656.717" type="line"/>
    </contour>
    <contour>
      <point x="560" y="258" type="curve" smooth="yes"/>
      <point x="560" y="296.43"/>
      <point x="520.371" y="325"/>
      <point x="466.928" y="325" type="curve" smooth="yes"/>
      <point x="407.277" y="325"/>
      <point x="367" y="295.707"/>
      <point x="367" y="251" type="curve" smooth="yes"/>
      <point x="367" y="220.232"/>
      <point x="385.551" y="195.742"/>
      <point x="422.856" y="177" type="curve" smooth="yes"/>
      <point x="484.557" y="146" type="line" smooth="yes"/>
      <point x="514.369" y="131.021"/>
      <point x="527" y="112.65"/>
      <point x="527" y="75" type="curve" smooth="yes"/>
      <point x="527" y="39.1129"/>
      <point x="505.105" y="22"/>
      <point x="463.99" y="22" type="curve" smooth="yes"/>
      <point x="427.447" y="22"/>
      <point x="402" y="44.8333"/>
      <point x="402" y="78" type="curve" smooth="yes"/>
      <point x="402" y="108.5"/>
      <point x="423.325" y="138.514"/>
      <point x="461.413" y="161.913" type="curve"/>
      <point x="447.159" y="177.226" type="line"/>
      <point x="383.727" y="148.318"/>
      <point x="352" y="115.836"/>
      <point x="352" y="78" type="curve" smooth="yes"/>
      <point x="352" y="28.8929"/>
      <point x="396.927" y="-4"/>
      <point x="463.01" y="-4" type="curve" smooth="yes"/>
      <point x="530.753" y="-4"/>
      <point x="585" y="35.9008"/>
      <point x="585" y="85" type="curve" smooth="yes"/>
      <point x="585" y="116.76"/>
      <point x="564.028" y="148.85"/>
      <point x="533" y="164" type="curve" smooth="yes"/>
      <point x="455.175" y="202" type="line" smooth="yes"/>
      <point x="429.022" y="215.352"/>
      <point x="416" y="234.631"/>
      <point x="416" y="260" type="curve" smooth="yes"/>
      <point x="416" y="284.75"/>
      <point x="433.177" y="299"/>
      <point x="463.01" y="299" type="curve" smooth="yes"/>
      <point x="491.054" y="299"/>
      <point x="511" y="281.959"/>
      <point x="511" y="258" type="curve" smooth="yes"/>
      <point x="511" y="229.507"/>
      <point x="485.96" y="190.703"/>
      <point x="466.505" y="189.048" type="curve"/>
      <point x="467.4" y="164.347" type="line"/>
      <point x="526.866" y="191.316"/>
      <point x="560" y="225.207"/>
    </contour>
    <contour>
      <point x="225.334" y="617" type="line"/>
      <point x="195.422" y="572.826"/>
      <point x="109" y="442"/>
      <point x="73.4087" y="331.806" type="curve"/>
      <point x="74.5913" y="330.194" type="line"/>
      <point x="128" y="332" type="line"/>
      <point x="159" y="437"/>
      <point x="218.687" y="560"/>
      <point x="271.687" y="651" type="curve"/>
      <point x="264.687" y="658" type="line"/>
      <point x="240.635" y="656.024"/>
      <point x="215.777" y="655"/>
      <point x="191.687" y="655" type="curve" smooth="yes"/>
      <point x="110.687" y="655" type="line" smooth="yes"/>
      <point x="106.72" y="655"/>
      <point x="79.008" y="656.164"/>
      <point x="66.9485" y="660" type="curve"/>
      <point x="62.1819" y="660"/>
      <point x="58.6868" y="656.505"/>
      <point x="58.6868" y="652.184" type="curve"/>
      <point x="57.6868" y="626.184"/>
      <point x="53.7253" y="594.907"/>
      <point x="45.6868" y="566" type="curve"/>
      <point x="66.6868" y="563" type="line"/>
      <point x="78.1901" y="603.065"/>
      <point x="96.1287" y="617"/>
      <point x="142.406" y="617" type="curve" smooth="yes"/>
    </contour>
  </outline>
</glyph>
<glyph name="uni21CB" format="2">
  <advance width="1087"/>
  <unicode hex="21CB"/>
  <outline>
    <contour>
      <point x="59" y="397" type="line"/>
      <point x="1027" y="397" type="line"/>
      <point x="1027" y="449" type="line"/>
      <point x="209" y="449" type="line"/>
      <point x="244" y="486"/>
      <point x="278" y="539"/>
      <point x="310" y="607" type="curve"/>
      <point x="271" y="607" type="line"/>
      <point x="227" y="558"/>
      <point x="189" y="521"/>
      <point x="157" y="496" type="curve" smooth="yes"/>
      <point x="125" y="470"/>
      <point x="92" y="449"/>
      <point x="59" y="433" type="curve"/>
    </contour>
    <contour>
      <point x="1029" y="291" type="line"/>
      <point x="61" y="291" type="line"/>
      <point x="61" y="239" type="line"/>
      <point x="879" y="239" type="line"/>
      <point x="844" y="202"/>
      <point x="810" y="149"/>
      <point x="778" y="81" type="curve"/>
      <point x="817" y="81" type="line"/>
      <point x="861" y="130"/>
      <point x="899" y="167"/>
      <point x="931" y="192" type="curve" smooth="yes"/>
      <point x="963" y="218"/>
      <point x="996" y="239"/>
      <point x="1029" y="255" type="curve"/>
    </contour>
  </outline>
</glyph>
<glyph name="product" format="2">
  <advance width="701"/>
  <unicode hex="220F"/>
  <outline>
    <contour>
      <point x="508" y="-33" type="line" smooth="yes"/>
      <point x="508" y="-60"/>
      <point x="493" y="-77"/>
      <point x="450" y="-77" type="curve" smooth="yes"/>
      <point x="423" y="-77" type="line" smooth="yes"/>
      <point x="418" y="-77"/>
      <point x="414" y="-79"/>
      <point x="414" y="-85" type="curve" smooth="yes"/>
      <point x="414" y="-108" type="line"/>
      <point x="417" y="-110" type="line"/>
      <point x="417" y="-110"/>
      <point x="515" y="-108"/>
      <point x="553" y="-108" type="curve" smooth="yes"/>
      <point x="594" y="-108"/>
      <point x="686" y="-110"/>
      <point x="686" y="-110" type="curve"/>
      <point x="687" y="-108" type="line"/>
      <point x="687" y="-85" type="line" smooth="yes"/>
      <point x="687" y="-79"/>
      <point x="683" y="-77"/>
      <point x="678" y="-77" type="curve" smooth="yes"/>
      <point x="651" y="-77" type="line" smooth="yes"/>
      <point x="609" y="-77"/>
      <point x="593" y="-63"/>
      <point x="593" y="-33" type="curve" smooth="yes"/>
      <point x="593" y="516" type="line" smooth="yes"/>
      <point x="593" y="546"/>
      <point x="618" y="555"/>
      <point x="648" y="556" type="curve"/>
      <point x="678" y="556" type="line" smooth="yes"/>
      <point x="683" y="556"/>
      <point x="687" y="560"/>
      <point x="687" y="564" type="curve" smooth="yes"/>
      <point x="687" y="587" type="line"/>
      <point x="686" y="587"/>
      <point x="553" y="585"/>
      <point x="547" y="585" type="curve" smooth="yes"/>
      <point x="472" y="584"/>
      <point x="412" y="584"/>
      <point x="347" y="584" type="curve" smooth="yes"/>
      <point x="272" y="584"/>
      <point x="213" y="584"/>
      <point x="148" y="585" type="curve" smooth="yes"/>
      <point x="133" y="585"/>
      <point x="22" y="587"/>
      <point x="14" y="587" type="curve"/>
      <point x="14" y="563" type="line" smooth="yes"/>
      <point x="14" y="560"/>
      <point x="16" y="556"/>
      <point x="22" y="556" type="curve" smooth="yes"/>
      <point x="54" y="556" type="line" smooth="yes"/>
      <point x="88" y="556"/>
      <point x="107" y="553"/>
      <point x="107" y="516" type="curve" smooth="yes"/>
      <point x="107" y="-33" type="line" smooth="yes"/>
      <point x="107" y="-60"/>
      <point x="92" y="-77"/>
      <point x="49" y="-77" type="curve" smooth="yes"/>
      <point x="22" y="-77" type="line" smooth="yes"/>
      <point x="17" y="-77"/>
      <point x="14" y="-79"/>
      <point x="14" y="-85" type="curve" smooth="yes"/>
      <point x="14" y="-108" type="line"/>
      <point x="16" y="-110" type="line"/>
      <point x="16" y="-110"/>
      <point x="115" y="-108"/>
      <point x="152" y="-108" type="curve" smooth="yes"/>
      <point x="193" y="-108"/>
      <point x="284" y="-110"/>
      <point x="284" y="-110" type="curve"/>
      <point x="286" y="-108" type="line"/>
      <point x="286" y="-85" type="line" smooth="yes"/>
      <point x="286" y="-79"/>
      <point x="281" y="-77"/>
      <point x="277" y="-77" type="curve" smooth="yes"/>
      <point x="249" y="-77" type="line" smooth="yes"/>
      <point x="208" y="-77"/>
      <point x="192" y="-63"/>
      <point x="192" y="-33" type="curve" smooth="yes"/>
      <point x="192" y="501" type="line" smooth="yes"/>
      <point x="192" y="535"/>
      <point x="197" y="546"/>
      <point x="230" y="546" type="curve" smooth="yes"/>
      <point x="469" y="546" type="line" smooth="yes"/>
      <point x="503" y="546"/>
      <point x="508" y="530"/>
      <point x="508" y="502" type="curve" smooth="yes"/>
    </contour>
  </outline>
</glyph>
<glyph name="uni2C6C" format="2">
  <advance width="411"/>
  <unicode hex="2C6C"/>
  <outline>
    <contour>
      <point x="240" y="0" type="line" smooth="yes"/>
      <point x="321" y="0"/>
      <point x="340" y="-73"/>
      <point x="352" y="-128" type="curve"/>
      <point x="361.114" y="-129.989"/>
      <point x="369.953" y="-129.819"/>
      <point x="379" y="-128" type="curve"/>
      <point x="373" y="8" type="line"/>
      <point x="372" y="20"/>
      <point x="362" y="39"/>
      <point x="340" y="39" type="curve" smooth="yes"/>
      <point x="124" y="39" type="line"/>
      <point x="353" y="387" type="line" smooth="yes"/>
      <point x="362.149" y="400.903"/>
      <point x="370" y="415"/>
      <point x="370" y="421" type="curve" smooth="yes"/>
      <point x="370" y="430"/>
      <point x="364.992" y="433.396"/>
      <point x="354" y="433" type="curve" smooth="yes"/>
      <point x="337.481" y="432.405"/>
      <point x="320.53" y="430"/>
      <point x="304" y="430" type="curve" smooth="yes"/>
      <point x="108" y="430" type="line" smooth="yes"/>
      <point x="95.8089" y="430"/>
      <point x="88.4865" y="435.078"/>
      <point x="87" y="447" type="curve"/>
      <point x="79.4731" y="449.517"/>
      <point x="71.5491" y="451.306"/>
      <point x="63" y="451" type="curve"/>
      <point x="32" y="299" type="line"/>
      <point x="37.5311" y="295.565"/>
      <point x="49.2892" y="293.647"/>
      <point x="58" y="294" type="curve"/>
      <point x="85.8824" y="364.465"/>
      <point x="108.972" y="391"/>
      <point x="136" y="391" type="curve" smooth="yes"/>
      <point x="278" y="391" type="line"/>
      <point x="42" y="32" type="line" smooth="yes"/>
      <point x="36" y="23"/>
      <point x="33" y="17"/>
      <point x="33" y="12" type="curve" smooth="yes"/>
      <point x="33" y="5"/>
      <point x="41" y="0"/>
      <point x="68" y="0" type="curve" smooth="yes"/>
    </contour>
  </outline>
</glyph>
<glyph name="h.sc" format="2">
  <advance width="573"/>
  <outline>
    <contour>
      <point x="19" y="-2" type="curve"/>
      <point x="59" y="-1"/>
      <point x="99" y="0"/>
      <point x="131" y="0" type="curve" smooth="yes"/>
      <point x="163" y="0"/>
      <point x="204" y="-1"/>
      <point x="243" y="-2" type="curve"/>
      <point x="249" y="4"/>
      <point x="249" y="25"/>
      <point x="243" y="31" type="curve"/>
      <point x="182" y="35"/>
      <point x="171" y="39"/>
      <point x="171" y="122" type="curve" smooth="yes"/>
      <point x="171" y="338" type="line" smooth="yes"/>
      <point x="171" y="421"/>
      <point x="182" y="424"/>
      <point x="243" y="429" type="curve"/>
      <point x="249" y="435"/>
      <point x="249" y="456"/>
      <point x="243" y="462" type="curve"/>
      <point x="205" y="461"/>
      <point x="162" y="460"/>
      <point x="130" y="460" type="curve" smooth="yes"/>
      <point x="100" y="460"/>
      <point x="59" y="461"/>
      <point x="19" y="462" type="curve"/>
      <point x="13" y="456"/>
      <point x="13" y="435"/>
      <point x="19" y="429" type="curve"/>
      <point x="80" y="425"/>
      <point x="91" y="421"/>
      <point x="91" y="338" type="curve" smooth="yes"/>
      <point x="91" y="122" type="line" smooth="yes"/>
      <point x="91" y="39"/>
      <point x="80" y="36"/>
      <point x="19" y="31" type="curve"/>
      <point x="13" y="25"/>
      <point x="13" y="4"/>
    </contour>
    <contour>
      <point x="330" y="-2" type="curve"/>
      <point x="367" y="-1"/>
      <point x="408" y="0"/>
      <point x="443" y="0" type="curve" smooth="yes"/>
      <point x="473" y="0"/>
      <point x="515" y="-1"/>
      <point x="554" y="-2" type="curve"/>
      <point x="560" y="4"/>
      <point x="560" y="25"/>
      <point x="554" y="31" type="curve"/>
      <point x="493" y="35"/>
      <point x="482" y="39"/>
      <point x="482" y="122" type="curve" smooth="yes"/>
      <point x="482" y="338" type="line" smooth="yes"/>
      <point x="482" y="421"/>
      <point x="493" y="424"/>
      <point x="554" y="429" type="curve"/>
      <point x="560" y="435"/>
      <point x="560" y="456"/>
      <point x="554" y="462" type="curve"/>
      <point x="519" y="460"/>
      <point x="475" y="460"/>
      <point x="442" y="460" type="curve" smooth="yes"/>
      <point x="414" y="460"/>
      <point x="369" y="461"/>
      <point x="330" y="462" type="curve"/>
      <point x="324" y="456"/>
      <point x="324" y="435"/>
      <point x="330" y="429" type="curve"/>
      <point x="391" y="425"/>
      <point x="402" y="421"/>
      <point x="402" y="338" type="curve" smooth="yes"/>
      <point x="402" y="122" type="line" smooth="yes"/>
      <point x="402" y="39"/>
      <point x="391" y="36"/>
      <point x="330" y="31" type="curve"/>
      <point x="324" y="25"/>
      <point x="324" y="4"/>
    </contour>
    <contour>
      <point x="156" y="219" type="line"/>
      <point x="417" y="219" type="line"/>
      <point x="417" y="252" type="line"/>
      <point x="156" y="252" type="line"/>
    </contour>
  </outline>
</glyph>
<glyph name="uni03040308" format="2">
  <anchor x="-204" y="500" name="_top"/>
  <outline>
    <contour>
      <point x="-337" y="655" type="curve" smooth="yes"/>
      <point x="-337" y="629"/>
      <point x="-316" y="608"/>
      <point x="-290" y="608" type="curve" smooth="yes"/>
      <point x="-264" y="608"/>
      <point x="-243" y="629"/>
      <point x="-243" y="655" type="curve" smooth="yes"/>
      <point x="-243" y="681"/>
      <point x="-264" y="703"/>
      <point x="-290" y="703" type="curve" smooth="yes"/>
      <point x="-316" y="703"/>
      <point x="-337" y="681"/>
    </contour>
    <contour>
      <point x="-168" y="655" type="curve" smooth="yes"/>
      <point x="-168" y="629"/>
      <point x="-147" y="608"/>
      <point x="-121" y="608" type="curve" smooth="yes"/>
      <point x="-95" y="608"/>
      <point x="-74" y="629"/>
      <point x="-74" y="655" type="curve" smooth="yes"/>
      <point x="-74" y="681"/>
      <point x="-95" y="703"/>
      <point x="-121" y="703" type="curve" smooth="yes"/>
      <point x="-147" y="703"/>
      <point x="-168" y="681"/>
    </contour>
    <contour>
      <point x="-99" y="500" type="line" smooth="yes"/>
      <point x="-86" y="500"/>
      <point x="-75" y="521"/>
      <point x="-75" y="533" type="curve" smooth="yes"/>
      <point x="-75" y="539"/>
      <point x="-79" y="550"/>
      <point x="-89" y="550" type="curve" smooth="yes"/>
      <point x="-314" y="550" type="line" smooth="yes"/>
      <point x="-325" y="550"/>
      <point x="-336" y="530"/>
      <point x="-336" y="518" type="curve" smooth="yes"/>
      <point x="-336" y="511"/>
      <point x="-332" y="500"/>
      <point x="-323" y="500" type="curve" smooth="yes"/>
    </contour>
  </outline>
</glyph>
<glyph name="uni044E.loclBGR" format="2">
  <advance width="709"/>
  <anchor x="303" y="500" name="top"/>
  <outline>
    <contour>
      <point x="22" y="-2" type="curve"/>
      <point x="52" y="-1"/>
      <point x="92" y="0"/>
      <point x="132" y="0" type="curve" smooth="yes"/>
      <point x="172" y="0"/>
      <point x="203" y="-1"/>
      <point x="233" y="-2" type="curve"/>
      <point x="239" y="4"/>
      <point x="239" y="25"/>
      <point x="233" y="31" type="curve"/>
      <point x="182" y="36"/>
      <point x="172" y="40"/>
      <point x="172" y="122" type="curve"/>
      <point x="92" y="122" type="line"/>
      <point x="92" y="40"/>
      <point x="82" y="36"/>
      <point x="22" y="31" type="curve"/>
      <point x="16" y="25"/>
      <point x="16" y="4"/>
    </contour>
    <contour>
      <point x="92" y="110" type="line"/>
      <point x="172" y="110" type="line"/>
      <point x="172" y="588" type="line"/>
      <point x="92" y="588" type="line"/>
    </contour>
    <contour>
      <point x="144" y="198" type="line"/>
      <point x="267" y="198" type="line"/>
      <point x="269" y="97"/>
      <point x="332" y="-10"/>
      <point x="467" y="-10" type="curve" smooth="yes"/>
      <point x="614" y="-10"/>
      <point x="669" y="117"/>
      <point x="669" y="217" type="curve" smooth="yes"/>
      <point x="669" y="321"/>
      <point x="620" y="439"/>
      <point x="468" y="439" type="curve" smooth="yes"/>
      <point x="347" y="439"/>
      <point x="279" y="356"/>
      <point x="268" y="237" type="curve"/>
      <point x="144" y="237" type="line"/>
    </contour>
    <contour>
      <point x="458" y="404" type="curve" smooth="yes"/>
      <point x="540" y="404"/>
      <point x="583" y="331"/>
      <point x="583" y="185" type="curve" smooth="yes"/>
      <point x="583" y="53"/>
      <point x="528" y="25"/>
      <point x="485" y="25" type="curve" smooth="yes"/>
      <point x="386" y="25"/>
      <point x="353" y="149"/>
      <point x="353" y="226" type="curve" smooth="yes"/>
      <point x="353" y="313"/>
      <point x="380" y="404"/>
    </contour>
    <contour>
      <point x="91.9615" y="576" type="curve"/>
      <point x="171.962" y="576" type="line"/>
      <point x="171.962" y="627.125"/>
      <point x="173.026" y="657.732"/>
      <point x="175.962" y="691" type="curve"/>
      <point x="175.962" y="695.154"/>
      <point x="170.676" y="698"/>
      <point x="162.962" y="698" type="curve"/>
      <point x="130.579" y="685.278"/>
      <point x="69.8822" y="672.523"/>
      <point x="24.9615" y="669" type="curve"/>
      <point x="23.3329" y="663.3"/>
      <point x="24.3706" y="648.773"/>
      <point x="26.9615" y="641" type="curve"/>
      <point x="83.9615" y="636"/>
      <point x="91.9615" y="628"/>
    </contour>
  </outline>
</glyph>
